<?xml version="1.0" encoding="UTF-8"?>
<svg version="1.1" xmlns="http://www.w3.org/2000/svg" width="1024" height="1024">
<path d="M0 0 C87.22616545 6.51256261 172.88517007 25.19875968 333 113 C334.12753284 113.85816664 335.25514046 114.71623504 336.3828125 115.57421875 C344.14978778 121.53115296 351.3921437 127.88706926 358.50683594 134.60400391 C360.76177962 136.71220665 363.06883888 138.76064366 365.375 140.8125 C372.07398531 146.82968228 378.10885062 153.19869021 384 160 C384.54503174 160.62769287 385.09006348 161.25538574 385.65161133 161.90209961 C426.15708315 208.91264035 446.93564328 264.95189309 444 327 C442.23001508 349.58385641 435.839603 371.23477875 427 392 C426.71463379 392.6791748 426.42926758 393.35834961 426.13525391 394.05810547 C418.33400517 412.36661985 407.67018754 429.67037037 395 445 C393.89785156 446.38638672 393.89785156 446.38638672 392.7734375 447.80078125 C378.48424096 465.64965396 362.16405955 483.07864049 344 497 C342.86569161 497.91973704 341.73439346 498.84319397 340.60546875 499.76953125 C274.57681935 553.79776353 192.00539845 585.77669751 30.625 616.25 C29.91629761 616.32731354 29.20759521 616.40462708 28.47741699 616.48428345 C1.83471457 619.34241935 -24.83460134 620.38700769 -51.61294937 620.31805801 C-53.85902224 620.31238244 -56.10508744 620.30958386 -58.35116577 620.30697632 C-82.99176978 620.26549508 -107.47824504 619.57555964 -132 617 C-133.25124664 616.8691803 -133.25124664 616.8691803 -134.527771 616.73571777 C-167.70443205 613.22284844 -200.61132127 608.05722897 -233 600 C-232 598 -232 598 -229.59769726 597.18799496 C-227.97879825 596.78845529 -227.97879825 596.78845529 -226.32719421 596.38084412 C-224.46625563 595.91515628 -224.46625563 595.91515628 -222.56772232 595.44006062 C-221.17237946 595.09979361 -219.77700131 594.75967128 -218.3815918 594.41967773 C-216.91187495 594.05521157 -215.44233988 593.69001169 -213.97297287 593.32413769 C-210.7630126 592.52659377 -207.55179132 591.73440713 -204.33953667 590.94615555 C-199.10384331 589.66136415 -193.87101462 588.3651557 -188.63844299 587.06771851 C-181.0137378 585.1784349 -173.38764853 583.29482928 -165.76062012 581.41494751 C-153.60816929 578.41946402 -141.4585586 575.4125682 -129.30957031 572.40307617 C-127.76971958 572.02165409 -127.76971958 572.02165409 -126.19876075 571.63252652 C-121.99976441 570.59242943 -117.80077191 569.55231687 -113.60180843 568.51208717 C-107.14300204 566.91206864 -100.68397832 565.31293086 -94.22479665 563.71442801 C-62.10924239 555.76623549 -30.00554807 547.77139622 2.08984375 539.7421875 C3.17695971 539.47024575 4.26407567 539.19830399 5.38413453 538.91812158 C23.56770289 534.36941348 41.75043481 529.8173655 59.93289566 525.26423264 C73.74140559 521.80640018 87.55013603 518.34945118 101.359375 514.89453125 C102.29922713 514.65937215 103.23907927 514.42421305 104.20741177 514.18192792 C133.81273241 506.77488893 163.43392829 499.43436651 193.0677948 492.1424408 C195.96464679 491.42958226 198.86148293 490.71665938 201.75830078 490.00366211 C202.45778969 489.83150047 203.1572786 489.65933883 203.87796414 489.48196018 C224.48542303 484.40898361 245.0740946 479.26089167 265.66021729 474.10211182 C271.63798081 472.60449669 277.61625476 471.10892011 283.59442902 469.61294556 C292.39664692 467.41007109 301.19832415 465.20503903 310 463 C274.61437491 468.56510498 239.23965999 474.19228509 203.87847567 479.91076946 C197.75650163 480.90053988 191.63432726 481.88906985 185.51217651 482.87774658 C175.66198562 484.46859843 165.81187632 486.05995416 155.96184757 487.65180957 C139.36132603 490.33460504 122.76053313 493.01571836 106.15964378 495.69623688 C104.02934553 496.04021308 101.89904793 496.38419334 99.76875055 496.72817492 C94.0354327 497.6539401 88.30211444 498.57970273 82.56879371 499.50545013 C72.38411618 501.14995306 62.19946101 502.79459444 52.01481628 504.43930054 C-2.80229856 513.29162397 -57.61955206 522.14308697 -112.43852711 530.98388481 C-115.13953041 531.41948798 -117.8405328 531.85509686 -120.54153442 532.29071045 C-121.20611874 532.39789306 -121.87070306 532.50507568 -122.55542629 532.61550625 C-132.53115765 534.22440427 -142.50670552 535.83443647 -152.48214722 537.44512939 C-163.79911064 539.27242549 -175.11627664 541.09846027 -186.43371272 542.92282677 C-192.18733705 543.85034847 -197.94086461 544.77845931 -203.69412613 545.70822906 C-208.96743472 546.56041793 -214.24102839 547.4108202 -219.51484215 548.25987697 C-221.40740508 548.56487781 -223.29986826 548.87049849 -225.19221294 549.17685056 C-238.1082131 551.2673287 -251.04200609 553.18789932 -264 555 C-262.88024077 551.64072231 -262.26397398 551.19085244 -259.484375 549.20703125 C-258.36494507 548.39721802 -258.36494507 548.39721802 -257.22290039 547.57104492 C-256.40684326 546.9907251 -255.59078613 546.41040527 -254.75 545.8125 C-253.01314059 544.55632063 -251.27750861 543.29844279 -249.54296875 542.0390625 C-248.63466309 541.38067383 -247.72635742 540.72228516 -246.79052734 540.04394531 C-242.16538233 536.6562188 -237.61425726 533.17287611 -233.0625 529.6875 C-231.2826602 528.3266815 -229.5027159 526.96599965 -227.72265625 525.60546875 C-226.90039551 524.97688965 -226.07813477 524.34831055 -225.23095703 523.70068359 C-221.59033304 520.92539505 -217.9217731 518.18837963 -214.25390625 515.44921875 C-210.70336496 512.78660107 -207.18188305 510.08607918 -203.65625 507.390625 C-195.2181676 500.94082638 -186.73396325 494.56609608 -178.16577148 488.2902832 C-172.22438866 483.92809145 -166.35302365 479.47988027 -160.5 475 C-153.11358208 469.34646605 -145.66805534 463.78529806 -138.1640625 458.2890625 C-132.22328567 453.92722968 -126.3524674 449.47945452 -120.5 445 C-113.88052718 439.93348268 -107.22490542 434.92573836 -100.5 430 C-92.80551751 424.36280971 -85.20250844 418.61358203 -77.625 412.8203125 C-71.80470092 408.3710172 -65.95928117 403.958072 -60.09033203 399.57324219 C-54.59443813 395.46063099 -49.14061253 391.29409476 -43.6875 387.125 C-36.2374511 381.43234325 -28.72865572 375.82979216 -21.16479492 370.28955078 C-15.2237217 365.92762531 -9.3527001 361.47963263 -3.5 357 C3.88641792 351.34646605 11.33194466 345.78529806 18.8359375 340.2890625 C24.77671433 335.92722968 30.6475326 331.47945452 36.5 327 C43.11947282 321.93348268 49.77509458 316.92573836 56.5 312 C64.19448249 306.36280971 71.79749156 300.61358203 79.375 294.8203125 C85.19529908 290.3710172 91.04071883 285.958072 96.90966797 281.57324219 C102.40556187 277.46063099 107.85938747 273.29409476 113.3125 269.125 C120.7625489 263.43234325 128.27134428 257.82979216 135.83520508 252.28955078 C141.7762783 247.92762531 147.6472999 243.47963263 153.5 239 C160.88641792 233.34646605 168.33194466 227.78529806 175.8359375 222.2890625 C181.77671433 217.92722968 187.6475326 213.47945452 193.5 209 C200.11947282 203.93348268 206.77509458 198.92573836 213.5 194 C221.17887764 188.37424225 228.7668811 182.63721089 236.32885742 176.85546875 C244.18122375 170.85249575 252.08069608 164.91427506 260 159 C252.87663949 162.80560037 246.09232603 167.05457147 239.3125 171.4375 C237.64729315 172.50868282 235.98208287 173.57986041 234.3165741 174.65057373 C233.18811353 175.3761908 232.05986868 176.10214346 230.93183899 176.82843018 C225.57090224 180.27982724 220.19364982 183.70523571 214.8125 187.125 C213.91764893 187.69404053 213.02279785 188.26308105 212.10083008 188.84936523 C210.3011814 189.99376971 208.50145846 191.13805741 206.70166016 192.28222656 C202.13353943 195.18673564 197.56684923 198.09349229 193 201 C191.16667337 202.1666772 189.33334004 203.33334387 187.5 204.5 C186.5925 205.0775 185.685 205.655 184.75 206.25 C147.625 229.875 147.625 229.875 110.5 253.5 C109.5922583 254.07766113 108.6845166 254.65532227 107.74926758 255.25048828 C105.91840247 256.41556948 104.0875106 257.58060864 102.2565918 258.74560547 C97.63527287 261.68618321 93.0144408 264.62752092 88.39453125 267.5703125 C78.99976771 273.55356973 69.5968409 279.52327876 60.17626953 285.46582031 C51.3678361 291.02498576 42.58344039 296.62183707 33.79833984 302.21777344 C29.19976238 305.14654813 24.59981973 308.07317691 20 311 C18.16665996 312.16665613 16.33332663 313.3333228 14.5 314.5 C-76.25 372.25 -167 430 -260.5 489.5 C-261.40854736 490.0782251 -262.31709473 490.6564502 -263.25317383 491.25219727 C-265.07571307 492.41187715 -266.89846498 493.57122287 -268.72143555 494.73022461 C-273.47177005 497.75100028 -278.21761841 500.77851905 -282.95703125 503.81640625 C-284.4275293 504.75709961 -284.4275293 504.75709961 -285.92773438 505.71679688 C-287.78850017 506.90733423 -289.64797451 508.09989368 -291.50585938 509.29492188 C-296.89777025 512.7410029 -302.3658672 515.96557923 -308 519 C-306.70693802 514.68674029 -305.05415712 511.13103468 -302.68359375 507.30859375 C-301.67425781 505.66697266 -301.67425781 505.66697266 -300.64453125 503.9921875 C-300.28568848 503.41436523 -299.9268457 502.83654297 -299.55712891 502.24121094 C-297.61702135 499.11571712 -295.69778768 495.97744476 -293.77734375 492.83984375 C-293.3796579 492.19095184 -292.98197205 491.54205994 -292.57223511 490.87350464 C-288.45348864 484.13731111 -284.47149584 477.32366883 -280.5 470.5 C-274.92950518 460.93968103 -269.26687361 451.44313539 -263.5 442 C-257.69467126 432.49279271 -251.99038247 422.93314746 -246.375 413.3125 C-240.58511824 403.39344997 -234.73510575 393.51389283 -228.81079102 383.67431641 C-223.61035814 375.03226951 -218.4567558 366.36304648 -213.3125 357.6875 C-207.77785249 348.35466359 -202.23033864 339.03037305 -196.63598633 329.7331543 C-191.89266753 321.84069671 -187.1975627 313.91973734 -182.5 306 C-176.90282205 296.56357901 -171.29345737 287.13525866 -165.63671875 277.734375 C-160.89315846 269.84150884 -156.19780482 261.92014554 -151.5 254 C-145.90282205 244.56357901 -140.29345737 235.13525866 -134.63671875 225.734375 C-129.89315846 217.84150884 -125.19780482 209.92014554 -120.5 202 C-114.90282205 192.56357901 -109.29345737 183.13525866 -103.63671875 173.734375 C-98.89315846 165.84150884 -94.19780482 157.92014554 -89.5 150 C-83.90282205 140.56357901 -78.29345737 131.13525866 -72.63671875 121.734375 C-67.89315846 113.84150884 -63.19780482 105.92014554 -58.5 98 C-52.90282205 88.56357901 -47.29345737 79.13525866 -41.63671875 69.734375 C-36.89315824 61.84150847 -32.19784239 53.92012362 -27.5 46 C-20.80266015 34.70923791 -14.08353839 23.43222886 -7.31396484 12.18457031 C-4.87236403 8.12521615 -2.43650209 4.06241588 0 0 Z M262 156 C261.67 156.66 261.34 157.32 261 158 C261.99 157.67 262.98 157.34 264 157 C263.34 156.67 262.68 156.34 262 156 Z " fill="#001B4D" transform="translate(578,20)"/>
<path d="M0 0 C0.78108916 0.0015486 1.56217833 0.0030972 2.36693686 0.00469273 C3.19080821 0.00242718 4.01467955 0.00016162 4.86351669 -0.00217259 C7.64674974 -0.00854335 10.42993447 -0.00768121 13.21317405 -0.00685817 C15.20055059 -0.00984816 17.18792655 -0.01325031 19.17530173 -0.01703578 C24.59583711 -0.02590639 30.01635672 -0.02821546 35.43689865 -0.02885157 C38.82863087 -0.02956151 42.22035907 -0.03169497 45.61209029 -0.03434879 C57.46170543 -0.04361936 69.3113093 -0.04768242 81.16092795 -0.04689723 C92.17310931 -0.04629921 103.18524123 -0.05679225 114.19741011 -0.0726409 C123.6668813 -0.08577897 133.1363365 -0.09107836 142.60581672 -0.09044182 C148.25371944 -0.09018824 153.90157846 -0.09296049 159.54947203 -0.10361987 C164.88051374 -0.11340404 170.211471 -0.11331042 175.54251593 -0.10610324 C177.48369903 -0.10506937 179.42488766 -0.10734759 181.36606139 -0.1134637 C210.52760715 -0.19927329 242.11119639 1.31438691 264.59867209 22.1384055 C277.18682806 36.36081329 277.69553462 53.05184254 276.59867209 71.1384055 C273.89967284 93.23021415 262.76838105 111.93391227 246.01273459 126.271218 C234.55517851 135.13321122 220.4893511 140.37672889 206.59867209 144.1384055 C210.01724617 145.9908348 213.53927895 147.16299758 217.22367209 148.3884055 C231.70476096 153.52588724 242.35209767 161.43612645 249.59867209 175.1384055 C257.33306924 192.78689354 255.7950332 212.05985563 249.34867209 229.8884055 C240.01347846 252.27634775 222.74211275 269.19433409 202.59867209 282.1384055 C201.67957053 282.74297581 200.76046897 283.34754613 199.81351584 283.97043675 C186.93289224 291.99591672 172.64349452 296.91994612 157.97367209 300.5134055 C157.01050071 300.75196263 156.04732932 300.99051976 155.05497092 301.23630589 C139.22999291 304.88133329 123.3574701 305.43145034 107.19584006 305.36545628 C105.2227668 305.3648905 103.24969311 305.36521198 101.27662009 305.36634129 C95.98029628 305.3669093 90.6840652 305.35524558 85.38776273 305.34119338 C79.83047678 305.32859282 74.27318813 305.32750823 68.71589011 305.32514256 C58.21917661 305.31895496 47.72250535 305.30258139 37.22581035 305.28244358 C25.26432051 305.25999936 13.30282853 305.24906982 1.34132284 305.23905271 C-23.23958405 305.21821242 -47.8204536 305.18308998 -72.40132791 305.1384055 C-71.80001393 298.9249486 -70.83896505 292.95829359 -69.47237283 286.87131566 C-69.27570992 285.97750691 -69.07904701 285.08369817 -68.87642461 284.16280431 C-68.21600525 281.1666885 -67.54887262 278.17210819 -66.88179666 275.177468 C-66.39825923 272.99025269 -65.91514856 270.80294299 -65.43242532 268.61554784 C-64.38031035 263.85237004 -63.32520131 259.08986864 -62.2678135 254.32785863 C-60.71242374 247.32299292 -59.16218482 240.3169965 -57.61347598 233.310651 C-55.12271502 222.04280281 -52.62876463 210.77566338 -50.13298172 199.50892657 C-43.28063593 168.57443995 -36.45226307 137.63465297 -29.62044507 106.69562787 C-26.99447767 94.80378071 -24.36718806 82.91222629 -21.73910171 71.02084726 C-20.59056946 65.82382372 -19.44227701 60.6267472 -18.29399663 55.42966801 C-17.39417522 51.35720195 -16.49419957 47.28477012 -15.59384423 43.21242207 C-14.76090133 39.44497768 -13.92837563 35.67744132 -13.09615558 31.90983719 C-12.6544778 29.91080303 -12.2123557 27.91186707 -11.77021199 25.91293591 C-11.50080706 24.69296099 -11.23140212 23.47298608 -10.9538334 22.21604222 C-10.69683223 21.05344884 -10.43983106 19.89085545 -10.17504197 18.69303197 C-9.6283447 16.18137463 -9.0922644 13.66923517 -8.56955415 11.15262669 C-8.30299075 9.87579015 -8.03642736 8.5989536 -7.76178628 7.28342503 C-7.5241201 6.12811284 -7.28645393 4.97280064 -7.04158574 3.78247899 C-5.94626129 -0.74088361 -4.35404841 0.01994932 0 0 Z M101.59867209 66.1384055 C98.73829105 76.49236891 96.20257259 86.88958735 93.87894553 97.37619847 C93.34119576 99.79706277 92.79432697 102.21575956 92.24710959 104.63449925 C91.9002066 106.19036657 91.55383226 107.74635187 91.20804709 109.302468 C91.04560508 110.01706181 90.88316306 110.73165562 90.71579856 111.46790379 C89.92296658 115.08574869 89.4132338 118.43234027 89.59867209 122.1384055 C93.84853688 122.22683099 98.09815955 122.27926978 102.34867209 122.3259055 C103.53589865 122.35104222 104.72312522 122.37617894 105.94632834 122.40207738 C119.20336396 122.5107416 131.33415667 120.10395723 141.34867209 110.9509055 C147.64823371 104.21285932 151.60993317 95.01892146 151.59476584 85.75168675 C151.1385281 79.87883917 149.7031164 76.18272283 145.41117209 72.0134055 C135.80122603 65.60677479 125.31412865 65.99680652 114.16117209 66.0759055 C112.34842795 66.08267308 112.34842795 66.08267308 110.49906272 66.08957738 C107.5322142 66.10130405 104.5654694 66.11771654 101.59867209 66.1384055 Z M75.59867209 180.1384055 C73.88374208 187.75426632 72.17542358 195.3715882 70.47171897 202.989968 C69.89121482 205.58210734 69.30919142 208.17390693 68.72562522 210.76535863 C67.88765178 214.48778483 67.05512861 218.21139398 66.22367209 221.9352805 C65.96118674 223.09581944 65.69870139 224.25635838 65.42826194 225.45206517 C65.18801291 226.53288365 64.94776389 227.61370213 64.70023459 228.72727269 C64.48705588 229.67769444 64.27387717 230.6281162 64.0542385 231.60733861 C63.48057653 234.36590575 63.48057653 234.36590575 63.59867209 238.1384055 C67.77547754 238.21374331 71.9519012 238.26755398 76.12918967 238.30320042 C77.54397347 238.31809288 78.95871276 238.33841386 80.3733303 238.36472386 C94.8838897 238.62742834 109.21961717 237.23849839 120.66117209 227.3571555 C127.81543273 219.8328469 132.08451448 209.67785677 131.86820334 199.255593 C131.273925 194.58749354 129.43278061 190.80420759 125.93851584 187.630593 C114.4983021 179.78453265 99.78745092 179.96580428 86.47367209 180.0759055 C85.42179709 180.08041722 84.36992209 180.08492894 83.28617209 180.08957738 C80.72360988 180.10122539 78.16117332 180.11757997 75.59867209 180.1384055 Z " fill="#FC5000" transform="translate(74.4013279080391,695.8615944981575)"/>
<path d="M0 0 C18.49722732 -0.02332798 36.99445167 -0.04097868 55.49169064 -0.05181217 C64.07967049 -0.05697534 72.66764123 -0.06401844 81.25561523 -0.07543945 C88.73815417 -0.08538565 96.22068651 -0.09185327 103.70323187 -0.09408849 C107.66764586 -0.09539571 111.63204095 -0.09848226 115.5964489 -0.10573006 C119.32360213 -0.11248926 123.05072857 -0.11461717 126.77788734 -0.11310768 C128.14975505 -0.11338406 129.5216236 -0.11538978 130.89348602 -0.11920547 C132.75860963 -0.12414108 134.62374744 -0.12239794 136.48887634 -0.12025452 C137.53511138 -0.12117631 138.58134642 -0.1220981 139.65928555 -0.12304783 C142 0 142 0 143 1 C143.39151834 3.22145027 143.7227933 5.45352426 144.03138733 7.68800354 C144.13024701 8.39531252 144.22910669 9.10262151 144.33096212 9.8313641 C144.66355179 12.21849734 144.99006554 14.60642314 145.31665039 16.99438477 C145.55288527 18.69899441 145.7894916 20.40355262 146.02644348 22.10806274 C146.67064583 26.74989989 147.30961894 31.39244384 147.94769216 36.03512692 C148.61466376 40.88157639 149.28639153 45.72736642 149.95762634 50.57322693 C151.22886779 59.75608875 152.49579841 68.93953999 153.76120132 78.12320799 C155.20164975 88.57572874 156.64687223 99.02758759 158.09250653 109.47939217 C161.06700343 130.98552651 164.03547015 152.49248964 167 174 C173.81211678 142.90633272 180.61876922 111.81153928 187.36328125 80.703125 C187.61197842 79.55609604 187.86067558 78.40906708 188.11690903 77.22727966 C189.84958046 69.23502808 191.58117343 61.24254301 193.3125 53.25 C195.09106549 45.03944285 196.8700371 36.82897414 198.65007591 28.61873627 C199.34692533 25.40358852 200.04302756 22.18827963 200.73908997 18.97296143 C201.1584605 17.03828123 201.57786656 15.10360874 201.99731445 13.16894531 C202.28153008 11.85456985 202.28153008 11.85456985 202.57148743 10.51364136 C202.7461554 9.7087326 202.92082336 8.90382385 203.1007843 8.07452393 C203.25128896 7.37965504 203.40179361 6.68478615 203.55685902 5.96886063 C204.00633124 3.97187051 204.50354227 1.98583094 205 0 C237.01 0 269.02 0 302 0 C300.78079827 7.92481124 299.53866411 15.69694614 297.86230469 23.51342773 C297.65599112 24.48984474 297.44967754 25.46626175 297.23711205 26.47226715 C296.55208946 29.71010478 295.8619729 32.94683438 295.171875 36.18359375 C294.67332953 38.53521439 294.17511944 40.88690615 293.67721558 43.23866272 C292.60305906 48.30896292 291.52676945 53.3788052 290.44854736 58.44824219 C288.72944794 66.5311248 287.01547018 74.61508909 285.30224609 82.69921875 C284.7078874 85.50351634 284.11348989 88.30780571 283.51907349 91.11209106 C283.36989027 91.81590664 283.22070705 92.51972222 283.06700313 93.24486554 C281.98819695 98.33409357 280.90866041 103.42316637 279.8288269 108.51217651 C275.12217031 130.69457549 270.42867763 152.87973832 265.7421875 175.06640625 C265.57173983 175.87332625 265.40129215 176.68024625 265.2256794 177.51161838 C263.52522116 185.56190755 261.82498801 193.61224425 260.12492847 201.66261762 C258.14434515 211.04135093 256.16319118 220.41996355 254.18167567 229.79849994 C253.24504168 234.23161381 252.30845296 238.66473724 251.37185729 243.0978592 C250.64364976 246.54462856 249.91543297 249.99139596 249.18719101 253.43815804 C248.64653915 255.9971313 248.10595297 258.55611845 247.56543922 261.11512089 C247.06173349 263.49922366 246.55769699 265.88325658 246.05328941 268.26721096 C244.95043004 273.48245412 243.85286967 278.69861769 242.77313232 283.91870117 C242.58736822 284.81329796 242.40160412 285.70789474 242.2102108 286.62960052 C241.87183417 288.26139755 241.53566531 289.89365473 241.20221901 291.52646637 C240.11160255 296.77679489 240.11160255 296.77679489 239 299 C220.50277268 299.02332798 202.00554833 299.04097868 183.50830936 299.05181217 C174.92032951 299.05697534 166.33235877 299.06401844 157.74438477 299.07543945 C150.26184583 299.08538565 142.77931349 299.09185327 135.29676813 299.09408849 C131.33235414 299.09539571 127.36795905 299.09848226 123.4035511 299.10573006 C119.67639787 299.11248926 115.94927143 299.11461717 112.22211266 299.11310768 C110.85024495 299.11338406 109.4783764 299.11538978 108.10651398 299.11920547 C106.24139037 299.12414108 104.37625256 299.12239794 102.51112366 299.12025452 C101.46488862 299.12117631 100.41865358 299.1220981 99.34071445 299.12304783 C97 299 97 299 96 298 C95.62115155 295.85753019 95.3024617 293.70441383 95.00657654 291.54891968 C94.91180041 290.86696742 94.81702428 290.18501516 94.71937615 289.48239768 C94.40057626 287.18069967 94.08788712 284.87821215 93.77514648 282.57568359 C93.548752 280.93169396 93.32199799 279.2877538 93.09490967 277.64385986 C92.47734672 273.16479624 91.86519808 268.68500783 91.25423694 264.2050395 C90.7440026 260.4674689 90.23109222 256.73026765 89.71815354 252.99306738 C88.50761452 244.17314008 87.30136469 235.35263351 86.09790039 226.53173828 C84.85644826 217.43285698 83.6085491 208.33487706 82.35731262 199.23733652 C81.28378881 191.4305235 80.21393445 183.62321387 79.14708763 175.8154856 C78.50969967 171.15086713 77.8710087 166.486437 77.22894096 161.82246017 C76.62469913 157.43184593 76.02506662 153.04062606 75.42893982 148.64890289 C75.20965741 147.03906095 74.98878202 145.42943505 74.76617622 143.82004929 C74.46189709 141.61826263 74.16346084 139.415758 73.86643982 137.21298218 C73.61397318 135.36627458 73.61397318 135.36627458 73.35640621 133.48225975 C72.99614029 129.96228883 72.93720696 126.53571607 73 123 C72.34 123 71.68 123 71 123 C70.93246726 123.8840621 70.93246726 123.8840621 70.86357021 124.78598404 C70.28327766 131.46507428 69.10245399 137.87959475 67.65844727 144.42089844 C67.42077133 145.51889771 67.1830954 146.61689697 66.93821716 147.74816895 C66.15290189 151.36974308 65.35968604 154.98953784 64.56640625 158.609375 C64.00837744 161.17520725 63.45084624 163.74114776 62.89378357 166.30718994 C61.57148733 172.39416741 60.24351427 178.47989155 58.91345209 184.56517625 C57.44012894 191.30710873 55.97283975 198.05034876 54.50624001 204.79374647 C52.17686782 215.50367275 49.84324693 226.21266481 47.50610352 236.92089844 C42.9943765 257.61182118 38.49864583 278.30622919 34 299 C1.99 299 -30.02 299 -63 299 C-61.87500648 288.87505828 -61.87500648 288.87505828 -60.94270325 284.4823761 C-60.73232548 283.48072166 -60.52194771 282.47906723 -60.30519485 281.44705963 C-60.0753326 280.37438591 -59.84547035 279.30171219 -59.60864258 278.1965332 C-59.24089533 276.45494305 -59.24089533 276.45494305 -58.86571884 274.67816925 C-58.18892549 271.47716492 -57.50828255 268.27700786 -56.82600141 265.07716966 C-56.08935568 261.61753211 -55.35783965 258.15680978 -54.62571716 254.69621277 C-53.35770595 248.70590074 -52.08661897 242.71624833 -50.81335449 236.72705078 C-48.8005027 227.25893798 -46.79286356 217.78972425 -44.78613281 208.3203125 C-44.09875236 205.07692888 -43.41133785 201.83355248 -42.72390747 198.59017944 C-42.5521382 197.77972998 -42.38036893 196.96928052 -42.20339453 196.13427198 C-40.96831884 190.30727144 -39.73232597 184.48046584 -38.49606323 178.65371704 C-33.79917289 156.51399499 -29.12243359 134.37009237 -24.46007347 112.22307396 C-23.41228323 107.24605229 -22.36385758 102.26916463 -21.31526184 97.29231262 C-21.14470506 96.48278839 -20.97414828 95.67326417 -20.79842311 94.8392089 C-20.11655038 91.60280708 -19.43466863 88.36640715 -18.75274765 85.13001549 C-16.92084595 76.43565131 -15.09003701 67.74106014 -13.26235962 59.04580688 C-11.85013576 52.32712449 -10.43553166 45.60894868 -9.0178892 38.89140743 C-8.29475349 35.46437248 -7.57280568 32.03709827 -6.854002 28.60915184 C-6.07418236 24.89304408 -5.29007115 21.17786712 -4.50488281 17.46289062 C-4.27861615 16.37943013 -4.05234949 15.29596964 -3.81922626 14.17967701 C-3.50159714 12.68338276 -3.50159714 12.68338276 -3.17755127 11.15686035 C-2.9971291 10.29966652 -2.81670692 9.44247269 -2.63081741 8.55930328 C-1.9123204 5.64427315 -0.98125234 2.83623387 0 0 Z " fill="#001B4D" transform="translate(381,702)"/>
<path d="M0 0 C2.73331868 0.00315514 5.46554463 -0.02039697 8.19873047 -0.0456543 C41.68258623 -0.16628878 76.32372682 7.37031881 102.49951172 29.31567383 C103.06541016 29.73719727 103.63130859 30.1587207 104.21435547 30.59301758 C124.36727709 46.19374984 133.62744483 73.06795569 136.90185547 97.29223633 C137.52378492 103.47745248 137.5930762 109.66688568 137.62451172 115.87817383 C137.63164185 117.05827026 137.63164185 117.05827026 137.63891602 118.26220703 C137.62930358 121.53577451 137.54176416 124.18891649 136.49951172 127.31567383 C92.27951172 127.31567383 48.05951172 127.31567383 2.49951172 127.31567383 C2.82951172 123.68567383 3.15951172 120.05567383 3.49951172 116.31567383 C3.65441999 113.24036381 3.77130926 110.2025665 3.81201172 107.12817383 C3.84101562 106.38631836 3.87001953 105.64446289 3.89990234 104.88012695 C3.97710528 98.09220769 1.94609113 92.82837701 -2.81298828 87.94067383 C-8.13742636 84.72124615 -13.02753195 83.8052051 -19.10986328 84.72583008 C-30.51281089 87.53930244 -37.00964837 95.02148525 -43.00048828 104.69067383 C-60.09655316 135.41685878 -68.66400952 172.57633253 -67.31298828 207.62817383 C-67.26827393 208.89032715 -67.26827393 208.89032715 -67.22265625 210.17797852 C-66.85152584 216.63590632 -65.89047161 223.25472071 -61.81689453 228.47192383 C-61.23810547 228.91536133 -60.65931641 229.35879883 -60.06298828 229.81567383 C-59.48677734 230.27973633 -58.91056641 230.74379883 -58.31689453 231.22192383 C-54.11921422 233.74955928 -49.28076159 233.90502259 -44.50048828 233.31567383 C-33.37750332 230.15729538 -27.36030439 223.98804811 -21.50048828 214.31567383 C-17.2019123 206.50612411 -13.63395848 198.67159434 -10.50048828 190.31567383 C33.71951172 190.31567383 77.93951172 190.31567383 123.49951172 190.31567383 C112.07173652 218.88511182 98.51207968 242.2230206 77.49951172 264.31567383 C76.62939453 265.26506836 76.62939453 265.26506836 75.74169922 266.23364258 C40.8690295 303.12156708 -12.20461352 316.73055838 -61.18408203 318.44458008 C-101.4383349 319.07289828 -142.20622045 311.38409119 -172.25048828 283.00317383 C-195.00220061 259.25138624 -201.45066193 227.64829091 -200.78173828 195.83129883 C-199.01172793 145.88750665 -179.6690396 95.11300148 -144.98046875 58.86303711 C-143.98223786 57.81935724 -142.98916759 56.77072019 -142.00097656 55.7175293 C-115.99008236 28.06069165 -81.54444929 12.05408188 -44.81298828 4.06567383 C-44.1265625 3.91453125 -43.44013672 3.76338867 -42.73291016 3.60766602 C-28.57146022 0.7166419 -14.41545622 -0.03459709 0 0 Z " fill="#008B0D" transform="translate(858.50048828125,692.684326171875)"/>
<path d="M0 0 C1.74776218 -0.00067616 3.49552427 -0.00164876 5.24328613 -0.00289917 C8.87020786 -0.00435836 12.49710465 -0.00227756 16.12402344 0.00244141 C20.75128891 0.00817202 25.37849677 0.00482743 30.00576019 -0.00113106 C33.60042755 -0.00475595 37.19508137 -0.00358981 40.78974915 -0.00100327 C42.49603787 -0.0003411 44.20232787 -0.00113728 45.90861511 -0.00348282 C62.20447257 -0.02099728 62.20447257 -0.02099728 70.15625 1.1328125 C68.60091214 5.91706813 65.89343217 9.34846227 62.84375 13.2578125 C58.24757816 19.25743828 53.88168765 25.36693744 49.65625 31.6328125 C45.12854043 38.33425471 40.42952266 44.85388472 35.53295898 51.28955078 C31.64734481 56.41874069 27.98432647 61.67355243 24.3684082 66.99511719 C20.37349872 72.85954453 16.23158553 78.60946781 12.06274414 84.35107422 C8.38708791 89.41738721 4.75543454 94.51192483 1.15625 99.6328125 C-3.50496405 106.26214595 -8.23319602 112.84010023 -12.98828125 119.40234375 C-16.64370588 124.45363458 -20.25732962 129.53233602 -23.84375 134.6328125 C-28.50511749 141.26203962 -33.23319431 147.84009787 -37.98828125 154.40234375 C-41.64370588 159.45363458 -45.25732962 164.53233602 -48.84375 169.6328125 C-53.50511749 176.26203962 -58.23319431 182.84009787 -62.98828125 189.40234375 C-66.64370588 194.45363458 -70.25732962 199.53233602 -73.84375 204.6328125 C-78.50511749 211.26203962 -83.23319431 217.84009787 -87.98828125 224.40234375 C-91.64370588 229.45363458 -95.25732962 234.53233602 -98.84375 239.6328125 C-103.50511749 246.26203962 -108.23319431 252.84009787 -112.98828125 259.40234375 C-116.64370588 264.45363458 -120.25732962 269.53233602 -123.84375 274.6328125 C-128.50511749 281.26203962 -133.23319431 287.84009787 -137.98828125 294.40234375 C-141.64370588 299.45363458 -145.25732962 304.53233602 -148.84375 309.6328125 C-153.50511749 316.26203962 -158.23319431 322.84009787 -162.98828125 329.40234375 C-166.64370588 334.45363458 -170.25732962 339.53233602 -173.84375 344.6328125 C-178.50511749 351.26203962 -183.23319431 357.84009787 -187.98828125 364.40234375 C-191.64370588 369.45363458 -195.25732962 374.53233602 -198.84375 379.6328125 C-203.50511749 386.26203962 -208.23319431 392.84009787 -212.98828125 399.40234375 C-216.64370588 404.45363458 -220.25732962 409.53233602 -223.84375 414.6328125 C-228.50511749 421.26203962 -233.23319431 427.84009787 -237.98828125 434.40234375 C-241.64370588 439.45363458 -245.25732962 444.53233602 -248.84375 449.6328125 C-253.49657771 456.24989465 -258.21214433 462.81877444 -262.96411133 469.36499023 C-265.76179331 473.22568161 -268.53250035 477.10225566 -271.26171875 481.01171875 C-271.81085938 481.79740234 -272.36 482.58308594 -272.92578125 483.39257812 C-273.97517662 484.8977328 -275.02091214 486.40544752 -276.0625 487.91601562 C-279.62415307 493.02301403 -279.62415307 493.02301403 -281.84375 494.1328125 C-281.25762808 485.43290865 -280.37219292 476.82305617 -279.19871521 468.18386841 C-279.03355709 466.94590291 -278.86839896 465.70793741 -278.69823605 464.4324578 C-278.24437445 461.03122463 -277.7860275 457.63060947 -277.32688057 454.23008633 C-276.82972204 450.54192563 -276.33682514 446.85319503 -275.84338379 443.16453552 C-274.98585774 436.75860035 -274.12566187 430.35302828 -273.26363945 423.94769669 C-271.99990098 414.55733998 -270.74027306 405.16643525 -269.48154081 395.77540635 C-267.41577669 380.36420776 -265.34672735 364.95345208 -263.27563477 349.54296875 C-261.30450179 334.87620864 -259.33486515 320.20924903 -257.36743164 305.54199219 C-257.24816167 304.65284218 -257.12889169 303.76369217 -257.00600748 302.84759822 C-256.40552761 298.37100179 -255.80507617 293.89440154 -255.20463824 289.41779947 C-252.12294469 266.44222857 -249.04022571 243.46679616 -245.95272827 220.49200439 C-245.83714317 219.63189751 -245.72155807 218.77179063 -245.60247038 217.88561991 C-244.67927497 211.01588365 -243.75604221 204.14615241 -242.83273169 197.27643162 C-239.81373302 174.81412244 -236.80038309 152.35106907 -233.79539503 129.88688121 C-233.11567823 124.80589775 -232.4354378 119.72498462 -231.75479603 114.64412498 C-231.66154088 113.94799187 -231.56828572 113.25185876 -231.47220466 112.53463071 C-231.01231856 109.10183243 -230.55235746 105.66904422 -230.09233934 102.23626363 C-229.04912631 94.45066521 -228.00846727 86.66472985 -226.96963453 78.87854576 C-226.34434666 74.1965018 -225.71667349 69.51478008 -225.0882709 64.83315325 C-224.80112661 62.69012426 -224.51500071 60.54695854 -224.2299664 58.4036479 C-223.8459732 55.51709472 -223.45843679 52.63103952 -223.06996155 49.74508667 C-222.90372533 48.48535229 -222.90372533 48.48535229 -222.7341308 47.20016873 C-222.30762607 44.05464193 -221.85015701 41.15203354 -220.84375 38.1328125 C-218.85473633 37.12475586 -218.85473633 37.12475586 -216.17578125 36.22265625 C-215.15774414 35.87775146 -214.13970703 35.53284668 -213.09082031 35.17749023 C-211.95741211 34.81212158 -210.82400391 34.44675293 -209.65625 34.0703125 C-208.46225586 33.68109619 -207.26826172 33.29187988 -206.03808594 32.89086914 C-153.92357336 16.14868209 -99.7564262 6.70084528 -45.3203125 1.89453125 C-44.61325668 1.83128159 -43.90620087 1.76803192 -43.17771912 1.7028656 C-28.7742325 0.47643934 -14.45033792 -0.02008495 0 0 Z " fill="#001B4D" transform="translate(502.84375,18.8671875)"/>
<path d="M0 0 C1.20039592 3.52054661 0.79527928 5.96205318 -0.01574707 9.5584259 C-0.2671558 10.69375952 -0.51856453 11.82909313 -0.77759171 12.9988308 C-1.06303722 14.24420931 -1.34848274 15.48958782 -1.64257812 16.77270508 C-1.94139814 18.10592883 -2.23942037 19.43933161 -2.53670883 20.77289772 C-3.35278716 24.4229443 -4.18004217 28.07037929 -5.00914478 31.71748614 C-5.88975293 35.60022778 -6.75995051 39.48530163 -7.63128662 43.37013245 C-9.12709138 50.03270127 -10.62928172 56.69380327 -12.13586426 63.35394287 C-14.31863346 73.00365404 -16.491058 82.65567105 -18.66054392 92.30837631 C-21.81949871 106.36334111 -24.98312575 120.41724623 -28.15095663 134.47021294 C-33.12292439 156.52759717 -38.0589794 178.592875 -42.97671509 200.66241455 C-44.93486236 209.44923234 -46.89729498 218.2350935 -48.85933876 227.02104187 C-49.56662096 230.18829004 -50.27382347 233.355556 -50.98100281 236.52282715 C-52.48952239 243.2790503 -53.99815073 250.03524916 -55.50682354 256.7914381 C-55.84622952 258.31137909 -56.18563385 259.83132044 -56.52503681 261.35126209 C-61.80129012 284.97978076 -67.07856116 308.60807179 -72.35774803 332.23593521 C-74.54791858 342.03849664 -76.73773764 351.84113629 -78.92663574 361.64398193 C-80.79768323 370.0233528 -82.66942262 378.40256873 -84.54204506 386.78158778 C-85.51221235 391.12269026 -86.48204182 395.46386752 -87.45100594 399.80523872 C-88.34998554 403.8330019 -89.24991156 407.86055243 -90.15056944 411.88794065 C-90.47775248 413.35174828 -90.80459366 414.81563239 -91.13105631 416.27960086 C-92.67599798 423.2067992 -94.2298435 430.1261707 -96 437 C-96.66 437 -97.32 437 -98 437 C-98.28274277 435.93087372 -98.56548553 434.86174744 -98.85679626 433.76022339 C-114.12426915 376.03166231 -129.42318076 318.31161475 -144.78271103 260.60747719 C-148.24441026 247.60213731 -151.70232364 234.59579789 -155.15629578 221.5884037 C-155.87490584 218.88225231 -156.59362293 216.17612937 -157.31237793 213.47001648 C-157.78198251 211.70193484 -158.251587 209.93385317 -158.72119141 208.16577148 C-158.95042171 207.30271739 -159.17965202 206.4396633 -159.4158287 205.55045605 C-160.71757359 200.64910183 -162.01867565 195.74757763 -163.31923294 190.84590816 C-164.11978903 187.82943525 -164.92108199 184.81315834 -165.7224884 181.79691124 C-166.11037411 180.3362695 -166.49792194 178.87553799 -166.88511658 177.41471291 C-169.15530706 168.84987933 -171.4621759 160.29639954 -173.81689453 151.75439453 C-174.51673128 149.20503163 -175.21608975 146.65553792 -175.9153614 144.10601997 C-176.58170117 141.68683216 -177.25634098 139.27006215 -177.93125916 136.85325623 C-178.33747102 135.37436842 -178.74329885 133.89537505 -179.14868164 132.41625977 C-179.3370289 131.75211374 -179.52537617 131.08796772 -179.71943092 130.40369606 C-180.774765 126.51277806 -181.35984335 123.02790354 -181 119 C-179.41645571 116.78791982 -177.96706243 115.08145965 -176.0625 113.1875 C-175.53470947 112.64125977 -175.00691895 112.09501953 -174.46313477 111.53222656 C-173.29420724 110.32932735 -172.11759167 109.13386524 -170.93457031 107.94482422 C-168.87577146 105.875113 -166.84012525 103.78408196 -164.8046875 101.69140625 C-158.01392635 94.75710304 -151.22762691 88.00858739 -143.578125 82.01953125 C-140.79423539 79.83881772 -138.12313649 77.55040175 -135.4375 75.25 C-95.77374623 42.19687186 -48.09348419 18.13385481 0 0 Z " fill="#001B4D" transform="translate(265,63)"/>
<path d="M0 0 C0.66 0.33 1.32 0.66 2 1 C2.64116363 4.04551261 3.15165574 7.03571144 3.59806824 10.11186218 C3.74592956 11.08073091 3.89379089 12.04959963 4.04613286 13.04782802 C4.54352534 16.32190493 5.02790087 19.597779 5.51245117 22.8737793 C5.86513893 25.21317066 6.2186225 27.55244216 6.57284546 29.89160156 C7.43726156 35.61362507 8.29332226 41.33685467 9.14583995 47.06066199 C10.1449755 53.76568973 11.15443547 60.46915064 12.16452781 67.17253504 C13.9748821 79.18859711 15.77719872 91.20585052 17.57446289 103.22387695 C19.30361415 114.78631683 21.03613586 126.3482423 22.77368164 137.90942383 C22.93273499 138.9677378 22.93273499 138.9677378 23.09500154 140.04743185 C23.73400288 144.29903051 24.37313913 148.55060888 25.01230441 152.8021829 C25.95800758 159.09300626 26.90342681 165.38387229 27.84870911 171.67475891 C27.95117397 172.35664932 28.05363883 173.03853974 28.15920869 173.74109349 C29.64763483 183.64698329 31.13323873 193.55329324 32.61698914 203.45988464 C32.99202078 205.96310845 33.36705288 208.46633219 33.74208546 210.96955585 C34.46438749 215.79093948 35.18594286 220.61243411 35.90712261 225.43398571 C37.61390187 236.8341364 39.33785918 248.23129673 41.09732056 259.6234436 C41.42946327 261.78014896 41.76158064 263.93685822 42.09367085 266.09357166 C42.70891682 270.08791561 43.33000452 274.08128935 43.95463085 278.07417583 C44.22824702 279.84688862 44.50166762 281.61963161 44.77485657 283.39241028 C44.90029221 284.18308242 45.02572785 284.97375456 45.15496457 285.78838646 C45.78380486 289.90339835 46.12995818 293.82141512 46 298 C40.82232407 295.37086884 37.1459452 291.40484516 33.125 287.3125 C32.10212891 286.28866211 32.10212891 286.28866211 31.05859375 285.24414062 C26.50963393 280.65618972 22.18954083 275.91721741 18 271 C17.48147461 270.39357666 16.96294922 269.78715332 16.42871094 269.16235352 C-2.35455324 246.99248235 -17.53944756 222.1330637 -28 195 C-28.29100586 194.24686523 -28.58201172 193.49373047 -28.88183594 192.71777344 C-36.21573365 173.30756359 -39.89526177 152.67618033 -41 132 C-41.03996094 131.26185059 -41.07992187 130.52370117 -41.12109375 129.76318359 C-43.15018911 84.93032167 -27.87527941 35.35021467 0 0 Z " fill="#001B4D" transform="translate(66,206)"/>
</svg>
