<svg width="300" height="57" viewBox="0 0 300 57" fill="none" xmlns="http://www.w3.org/2000/svg">
<g clip-path="url(#clip0_94_10)">
<path d="M262.429 0.774841C261.356 0.774841 260.488 1.6436 260.488 2.71484V16.3211H296.429L280.061 0.776096L262.429 0.774841Z" fill="#888888"/>
<path d="M297.744 20.4374C297.744 19.3636 296.881 18.4986 295.802 18.4986H282.2V54.4411L297.737 38.0661L297.744 20.4374Z" fill="#888888"/>
<path d="M278.079 55.7423C279.149 55.7423 280.017 54.8723 280.017 53.7986V40.1974H244.075L260.445 55.7398L278.079 55.7423Z" fill="#888888"/>
<path d="M242.761 36.0824C242.761 37.1549 243.63 38.0286 244.705 38.0286H258.305V2.08362L242.764 18.4536L242.761 36.0824Z" fill="#888888"/>
<path d="M78.0201 7.33611V23.9348H54.8951V7.33611L46.4727 7.32861V49.1811H54.8951V31.2011H78.0201V49.1811H86.4564V7.33611H78.0201Z" fill="#E7E7E7"/>
<path d="M190.066 7.33609V49.1711H227.018L222.338 41.8061H198.513V31.2011H221.583V24.1073H198.513V14.5286H222.298L226.883 7.33609H190.066Z" fill="#E7E7E7"/>
<path d="M15.165 7.32608C6.40381 7.32608 1.97876 12.6523 1.97876 20.4023V36.0249C1.97876 44.9936 7.68126 49.1811 15.1213 49.1811L41.5463 49.1786L36.6475 41.5286H16.7538C12.5275 41.5286 10.6863 40.0011 10.6863 35.2711V21.0973C10.6863 16.5248 12.2363 14.7411 16.8663 14.7411H36.855L41.5588 7.32608H15.165Z" fill="#E7E7E7"/>
<path d="M153.106 7.31609C148.046 7.31609 142.86 10.3573 142.86 18.1799V20.1898C142.86 28.3448 147.85 31.4561 152.843 31.4774H170.366C172.186 31.4774 173.665 31.7798 173.665 34.8561L173.663 38.4098C173.616 41.1736 172.238 41.8061 170.304 41.8061H147.25L142.528 49.1711H170.846C177.675 49.1711 182.311 45.7736 182.311 37.9261V35.0423C182.311 27.4548 178.004 23.8698 171.325 23.8698H154.593C152.738 23.8698 151.445 23.3636 151.445 20.6161V17.7223C151.445 15.3823 152.331 14.5286 154.493 14.5286L176.448 14.5198L181.036 7.30609L153.106 7.31609Z" fill="#E7E7E7"/>
<path d="M110.926 7.33609L91.0825 49.1786H100.461L104.326 40.5373H125.89L129.743 49.1786H139.163L119.273 7.33609H110.926ZM115.088 16.0236L122.713 33.4148H107.511L115.088 16.0236Z" fill="#E7E7E7"/>
</g>
<defs>
<clipPath id="clip0_94_10">
<rect width="298.723" height="55.5172" fill="white" transform="translate(0.5 0.5)"/>
</clipPath>
</defs>
</svg>
