<svg width="62" height="62" viewBox="0 0 62 62" fill="none" xmlns="http://www.w3.org/2000/svg">
<g clip-path="url(#clip0_5508_83)">
<path d="M62 49.0833C62 53.3562 58.5228 56.8333 54.25 56.8333V59.4167C54.25 60.1018 53.9778 60.7589 53.4934 61.2434C53.0089 61.7278 52.3518 62 51.6667 62C50.9815 62 50.3244 61.7278 49.84 61.2434C49.3555 60.7589 49.0833 60.1018 49.0833 59.4167V56.8333H48.391C47.0314 56.831 45.6962 56.4721 44.5185 55.7927C43.3409 55.1132 42.362 54.1368 41.6795 52.9609C41.4951 52.667 41.3718 52.3389 41.317 51.9962C41.2622 51.6535 41.277 51.3034 41.3605 50.9665C41.4439 50.6297 41.5944 50.3132 41.803 50.0358C42.0115 49.7584 42.2737 49.5259 42.5741 49.3521C42.8745 49.1783 43.2068 49.0668 43.5511 49.0243C43.8955 48.9817 44.245 49.009 44.5786 49.1045C44.9122 49.1999 45.2232 49.3617 45.4929 49.5799C45.7627 49.7982 45.9857 50.0686 46.1487 50.375C46.6111 51.1707 47.4688 51.6667 48.3884 51.6667H54.2474C55.6734 51.6667 56.8307 50.5068 56.8307 49.0833C56.832 48.6118 56.6653 48.1551 56.3604 47.7953C56.0555 47.4356 55.6325 47.1961 55.1671 47.12L47.3112 45.8103C45.6378 45.5364 44.1168 44.6753 43.0208 43.3814C41.9248 42.0876 41.3257 40.4456 41.3307 38.75C41.3307 34.4772 44.8079 31 49.0807 31V28.4167C49.0807 27.7315 49.3529 27.0744 49.8374 26.59C50.3219 26.1055 50.9789 25.8333 51.6641 25.8333C52.3492 25.8333 53.0063 26.1055 53.4908 26.59C53.9752 27.0744 54.2474 27.7315 54.2474 28.4167V31H54.9398C57.6962 31 60.2692 32.4854 61.6512 34.875C61.8357 35.169 61.9589 35.4971 62.0138 35.8397C62.0686 36.1824 62.0538 36.5326 61.9703 36.8694C61.8868 37.2062 61.7363 37.5227 61.5278 37.8001C61.3193 38.0775 61.057 38.31 60.7566 38.4838C60.4563 38.6576 60.124 38.7691 59.7796 38.8116C59.4352 38.8542 59.0858 38.8269 58.7521 38.7314C58.4185 38.636 58.1076 38.4743 57.8378 38.256C57.568 38.0377 57.345 37.7673 57.1821 37.4609C56.9543 37.0685 56.6276 36.7428 56.2346 36.5161C55.8416 36.2895 55.396 36.1699 54.9423 36.1693H49.0833C47.6573 36.1693 46.5 37.3292 46.5 38.7526C46.5 39.7291 47.2001 40.5558 48.1637 40.7159L56.0196 42.0257C57.6929 42.2996 59.214 43.1606 60.3099 44.4545C61.4059 45.7483 62.0051 47.3877 62 49.0833ZM33.5833 20.6667H50.4783C49.5745 18.2778 48.1736 16.1081 46.3682 14.3013L37.3679 5.29583C35.5603 3.49089 33.3897 2.09078 31 1.18833V18.0833C31 19.5068 32.1573 20.6667 33.5833 20.6667ZM43.5782 61.0623C42.0444 61.6833 40.4048 62.0018 38.75 62H12.9167C5.79442 62 0 56.2056 0 49.0833V12.9167C0 5.79442 5.79442 0 12.9167 0H24.5804C25.0015 0 25.4174 0.0335833 25.8333 0.062V18.0833C25.8333 22.3562 29.3105 25.8333 33.5833 25.8333H44.361C44.2437 26.1633 44.1487 26.5007 44.0768 26.8434C42.4984 27.5121 41.0677 28.4863 39.8671 29.71C38.6665 30.9336 37.7197 32.3825 37.0812 33.9734C36.3733 33.7156 35.6258 33.5835 34.8724 33.5833H16.7917C15.0794 33.5854 13.4379 34.2665 12.2272 35.4772C11.0165 36.6879 10.3354 38.3294 10.3333 40.0417V45.2083C10.3333 48.7682 13.2318 51.6667 16.7917 51.6667H34.875C35.3167 51.6667 35.7482 51.6228 36.1641 51.5375C36.1382 52.9325 36.4922 54.312 37.2077 55.5468C38.6561 58.0454 40.8986 59.9878 43.5782 61.0648V61.0623ZM10.3333 15.5C10.3333 16.1851 10.6055 16.8422 11.09 17.3267C11.5744 17.8112 12.2315 18.0833 12.9167 18.0833H18.0833C18.7685 18.0833 19.4256 17.8112 19.91 17.3267C20.3945 16.8422 20.6667 16.1851 20.6667 15.5C20.6667 14.8149 20.3945 14.1578 19.91 13.6733C19.4256 13.1888 18.7685 12.9167 18.0833 12.9167H12.9167C12.2315 12.9167 11.5744 13.1888 11.09 13.6733C10.6055 14.1578 10.3333 14.8149 10.3333 15.5ZM10.3333 25.8333C10.3333 26.5185 10.6055 27.1756 11.09 27.66C11.5744 28.1445 12.2315 28.4167 12.9167 28.4167H18.0833C18.7685 28.4167 19.4256 28.1445 19.91 27.66C20.3945 27.1756 20.6667 26.5185 20.6667 25.8333C20.6667 25.1482 20.3945 24.4911 19.91 24.0066C19.4256 23.5222 18.7685 23.25 18.0833 23.25H12.9167C12.2315 23.25 11.5744 23.5222 11.09 24.0066C10.6055 24.4911 10.3333 25.1482 10.3333 25.8333ZM16.7917 38.75C16.4491 38.75 16.1206 38.8861 15.8783 39.1283C15.6361 39.3706 15.5 39.6991 15.5 40.0417V45.2083C15.5 45.5509 15.6361 45.8794 15.8783 46.1217C16.1206 46.3639 16.4491 46.5 16.7917 46.5H34.875C35.2176 46.5 35.5461 46.3639 35.7883 46.1217C36.0306 45.8794 36.1667 45.5509 36.1667 45.2083V40.0417C36.1667 39.6991 36.0306 39.3706 35.7883 39.1283C35.5461 38.8861 35.2176 38.75 34.875 38.75H16.7917Z" fill="#F2F6FC"/>
</g>
<defs>
<clipPath id="clip0_5508_83">
<rect width="62" height="62" fill="white"/>
</clipPath>
</defs>
</svg>
