<svg width="66" height="66" viewBox="0 0 66 66" fill="none" xmlns="http://www.w3.org/2000/svg">
<path d="M49.5 35.75C47.0812 35.7417 44.7275 36.5334 42.8055 38.0019C40.8835 39.4704 39.5011 41.5333 38.8734 43.8693C38.2458 46.2053 38.4083 48.6832 39.3355 50.9172C40.2628 53.1513 41.9027 55.016 44 56.221V64.0118C43.9998 64.404 44.116 64.7876 44.3339 65.1138C44.5517 65.4401 44.8614 65.6943 45.2239 65.8445C45.5863 65.9946 45.9851 66.0339 46.3698 65.9573C46.7546 65.8807 47.108 65.6917 47.3853 65.4143L49.5 63.3023L51.6148 65.4143C51.8921 65.6917 52.2454 65.8807 52.6302 65.9573C53.0149 66.0339 53.4137 65.9946 53.7762 65.8445C54.1386 65.6943 54.4483 65.4401 54.6662 65.1138C54.884 64.7876 55.0002 64.404 55 64.0118V56.221C57.0973 55.016 58.7373 53.1513 59.6645 50.9172C60.5917 48.6832 60.7542 46.2053 60.1266 43.8693C59.499 41.5333 58.1165 39.4704 56.1945 38.0019C54.2725 36.5334 51.9188 35.7417 49.5 35.75Z" fill="#F2F6FC"/>
<path d="M33 46.75C32.9966 43.8526 33.7572 41.0055 35.205 38.4957C36.6528 35.9859 38.7366 33.9021 41.2465 32.4545C43.7564 31.0069 46.6035 30.2465 49.501 30.25C52.3984 30.2536 55.2437 31.021 57.75 32.4748V13.75C57.7456 10.1046 56.2956 6.60978 53.7179 4.0321C51.1402 1.45443 47.6454 0.00436661 44 0L22 0C18.3546 0.00436661 14.8598 1.45443 12.2821 4.0321C9.70443 6.60978 8.25437 10.1046 8.25 13.75V46.75C8.25437 50.3954 9.70443 53.8902 12.2821 56.4679C14.8598 59.0456 18.3546 60.4956 22 60.5H38.5V59.015C36.7704 57.4739 35.3863 55.5844 34.4384 53.4706C33.4906 51.3569 33.0004 49.0666 33 46.75ZM22 11H44C44.7293 11 45.4288 11.2897 45.9445 11.8055C46.4603 12.3212 46.75 13.0207 46.75 13.75C46.75 14.4793 46.4603 15.1788 45.9445 15.6945C45.4288 16.2103 44.7293 16.5 44 16.5H22C21.2707 16.5 20.5712 16.2103 20.0555 15.6945C19.5397 15.1788 19.25 14.4793 19.25 13.75C19.25 13.0207 19.5397 12.3212 20.0555 11.8055C20.5712 11.2897 21.2707 11 22 11ZM22 22H44C44.7293 22 45.4288 22.2897 45.9445 22.8055C46.4603 23.3212 46.75 24.0207 46.75 24.75C46.75 25.4793 46.4603 26.1788 45.9445 26.6945C45.4288 27.2103 44.7293 27.5 44 27.5H22C21.2707 27.5 20.5712 27.2103 20.0555 26.6945C19.5397 26.1788 19.25 25.4793 19.25 24.75C19.25 24.0207 19.5397 23.3212 20.0555 22.8055C20.5712 22.2897 21.2707 22 22 22ZM30.25 38.5H22C21.2707 38.5 20.5712 38.2103 20.0555 37.6945C19.5397 37.1788 19.25 36.4793 19.25 35.75C19.25 35.0207 19.5397 34.3212 20.0555 33.8055C20.5712 33.2897 21.2707 33 22 33H30.25C30.9793 33 31.6788 33.2897 32.1945 33.8055C32.7103 34.3212 33 35.0207 33 35.75C33 36.4793 32.7103 37.1788 32.1945 37.6945C31.6788 38.2103 30.9793 38.5 30.25 38.5Z" fill="#F2F6FC"/>
</svg>
