<svg xmlns="http://www.w3.org/2000/svg" version="1.1" xmlns:xlink="http://www.w3.org/1999/xlink"
    width="512" height="512" x="0" y="0" viewBox="0 0 1067 1067"
    style="enable-background:new 0 0 512 512" xml:space="preserve" fill-rule="evenodd" class=""><g><circle cx="535.417" cy="533.402" r="468.75" fill="#4eff68" opacity="1" data-original="#4eff68" class=""></circle><path fill="#fc0852" d="M449.97 637.833a138.086 138.086 0 0 1 83.362-28.001h.003c30.265 0 59.506 9.935 83.361 28.001-8.397 16.798-13.12 35.738-13.12 55.772 0 27.948 9.191 53.766 24.712 74.589-55.764-14.135-120.272-13.379-192.736 3.652 17.226-21.424 27.539-48.637 27.539-78.241 0-20.034-4.723-38.974-13.121-55.772z" opacity="1" data-original="#fc0852"></path><path fill="#15cc60" d="M1001.71 485.189a473.127 473.127 0 0 1 2.455 48.213c0 258.71-210.04 468.75-468.75 468.75-258.711 0-468.75-210.04-468.75-468.75 0-16.273.831-32.354 2.454-48.213 24.161 236.09 223.858 420.538 466.296 420.538 242.437 0 442.134-184.448 466.295-420.538zm-346.873-60.4a14.573 14.573 0 0 0 2.97 27.767c46.678 8.498 91.096 28.123 133.222 59.029a14.588 14.588 0 0 0 22.553-16.062c-8.712-27.194-27.721-61.293-69.421-78.815-28.176-11.838-62.628-3.107-89.324 8.081zm-238.845 0a14.573 14.573 0 0 1-2.97 27.767c-46.678 8.498-91.095 28.123-133.222 59.029a14.587 14.587 0 0 1-22.553-16.062c8.712-27.194 27.722-61.293 69.422-78.815 28.175-11.838 62.627-3.107 89.323 8.081z" opacity="1" data-original="#15cc60"></path><path fill-opacity=".2" d="M463.061 690.839c-.413-19.01-5.081-36.982-13.091-53.006a138.086 138.086 0 0 1 83.362-28.001h.003c30.265 0 59.506 9.935 83.361 28.001-8.01 16.024-12.677 33.996-13.09 53.006-46.849-25.404-93.697-26.364-140.545 0z" fill="#000000" opacity="1" data-original="#000000"></path><path fill="#008336" d="M613.197 622.717a148.495 148.495 0 0 0-79.862-23.302h-.003a148.5 148.5 0 0 0-79.863 23.302 136.042 136.042 0 0 0-14.908-19.871c-3.856-4.265-10.448-4.597-14.713-.742-4.265 3.856-4.597 10.448-.742 14.713a114.928 114.928 0 0 1 17.519 25.62l.001.003c7.709 15.402 12.048 32.781 12.048 51.165 0 34.895-15.635 66.167-40.272 87.191-4.373 3.732-4.893 10.313-1.161 14.686s10.312 4.893 14.685 1.161a136.381 136.381 0 0 0 15.41-15.445c67.723-15.488 128.254-16.424 180.91-3.766a136.353 136.353 0 0 0 18.494 19.211c4.374 3.732 10.954 3.212 14.686-1.161s3.211-10.954-1.162-14.686c-24.636-21.024-40.272-52.296-40.272-87.191s15.636-66.166 40.272-87.19c4.373-3.732 4.894-10.313 1.162-14.686s-10.312-4.894-14.686-1.162a136.24 136.24 0 0 0-27.543 32.15zm-9.57 18.624a127.672 127.672 0 0 0-70.292-21.093h-.003a127.665 127.665 0 0 0-70.293 21.094c6.742 16.083 10.469 33.741 10.469 52.263 0 22.668-5.581 44.042-15.44 62.818 54.356-10.263 104.069-11.166 148.795-3.424-8.777-17.938-13.704-38.095-13.704-59.394 0-18.523 3.726-36.183 10.468-52.264zM254.27 372.607l169.222 68.564c-65.68 10.122-123.541 36.821-172.425 82.539-4.199 3.927-4.42 10.525-.493 14.724s10.524 4.419 14.723.492c55.511-51.916 123.448-77.471 201.709-81.158a10.416 10.416 0 0 0 3.421-20.059l-208.333-84.411c-5.329-2.159-11.407.415-13.566 5.743s.414 11.407 5.742 13.566zm554.453-19.309-208.334 84.411a10.417 10.417 0 0 0 3.422 20.059c78.26 3.687 146.198 29.242 201.708 81.158 4.199 3.927 10.796 3.707 14.723-.492s3.707-10.797-.492-14.724c-48.885-45.718-106.746-72.417-172.423-82.539-.003 0 169.219-68.564 169.219-68.564 5.328-2.159 7.902-8.238 5.743-13.566s-8.238-7.902-13.566-5.743z" opacity="1" data-original="#008336"></path></g></svg>