<svg width="1418" height="579" viewBox="0 0 1418 579" fill="none" xmlns="http://www.w3.org/2000/svg">
<path d="M130.531 80.1836L7.96985 79.0554V160.367H211.088L0 430.94V499.749H130.531V579H208.85V499.749H341.992C343.111 496.579 343.505 488.031 336.419 480.199C324.671 467.146 315.328 453.503 306.751 436.348C302.835 428.702 299.86 419.545 298.742 418.799C272.523 417.598 121.687 417.907 121.769 416.955L333.043 144.724V80.1836H208.852V0H130.533V80.1836H130.531ZM696.105 42.3295C694.241 43.0754 693.681 84.286 693.681 240.364C693.681 451.266 693.495 447.723 702.818 465.811C711.21 482.034 731.722 496.579 754.658 502.546C767.338 505.902 804.633 506.275 818.991 503.292C837.452 499.376 840.995 493.782 833.723 479.423C829.061 470.472 822.907 450.893 821.416 440.077C819.364 427.211 816.754 425.159 801.09 425.532C793.631 425.719 786.545 425.159 785.24 424.414C777.594 419.565 777.594 418.26 777.594 229.362C777.594 107.968 777.035 46.9913 775.73 44.5671C773.865 41.2106 771.441 41.0242 736.011 41.2106C715.312 41.2106 697.224 41.77 696.105 42.3295ZM867.102 42.8889C864.677 44.3807 864.304 68.2493 864.304 239.059C864.304 423.108 864.491 434.297 867.847 447.163C874.188 472.524 888.546 488.001 915.771 499.376C926.214 503.665 930.875 504.411 951.947 504.97C980.104 505.716 994.463 503.665 1008.82 496.392C1022.99 489.493 1023.37 484.644 1011.25 466.929C1006.4 459.843 998.938 447.723 994.836 440.077L987.377 426.092L973.764 425.905C956.795 425.532 955.117 424.786 951.947 416.768C949.523 411.36 949.15 383.576 949.15 229.362C949.15 107.968 948.59 46.9913 947.285 44.5671C945.42 41.2106 942.996 41.0242 907.566 41.0242C886.868 41.0242 868.593 41.9565 867.102 42.8889ZM1363.12 82.9807C1348.02 89.8802 1340.18 101.814 1340 118.411C1339.81 132.583 1345.59 143.398 1357.34 151.043C1371.89 160.927 1395.19 158.129 1407.31 145.076C1422.79 128.48 1419.62 99.7633 1400.6 86.8966C1390.72 80.1836 1373.38 78.5053 1363.12 82.9807ZM1392.96 89.8802C1414.03 100.509 1417.2 127.734 1399.3 143.585C1391.65 150.298 1386.24 151.789 1374.5 150.671C1342.05 147.5 1335.71 102.001 1365.92 88.3884C1374.12 84.6589 1383.63 85.2184 1392.96 89.8802Z" fill="#F044BF"/>
<path d="M1364.43 98.2715C1363.12 100.509 1362.93 135.193 1364.24 138.736C1364.8 140.414 1366.48 141.72 1367.97 141.72C1369.83 141.72 1370.58 139.109 1370.58 132.396C1370.58 124.005 1370.95 123.072 1374.87 123.072C1377.85 123.072 1380.46 125.683 1384.57 132.396C1387.92 137.99 1391.28 141.72 1393.33 141.72C1397.8 141.72 1397.62 140.974 1390.72 130.904C1386.62 124.937 1385.5 122.14 1387.18 121.581C1392.02 119.902 1396.69 113.749 1396.69 109.087C1396.69 100.696 1390.72 96.9662 1377.29 96.9662C1370.58 96.9662 1364.8 97.5256 1364.43 98.2715ZM1386.99 104.239C1388.48 104.985 1389.23 107.782 1388.85 110.206C1388.29 114.122 1387.18 114.681 1379.53 115.241L1370.58 115.8V109.273C1370.58 102.747 1370.77 102.56 1377.67 102.56C1381.4 102.56 1385.68 103.306 1386.99 104.239ZM461.522 159.435C460.589 159.808 453.317 161.486 445.671 163.164C397.748 174.166 355.418 210.901 337.517 257.52C327.634 283.253 324.091 303.206 323.904 332.855C323.718 374.439 332.109 405.02 351.316 434.11C372.947 466.743 404.647 488.933 445.671 500.122C459.657 503.851 465.811 504.411 497.884 504.411C529.585 504.411 536.111 503.851 549.351 500.308C582.17 491.171 610.141 476.067 632.704 454.622C647.063 441.196 646.876 437.467 632.331 426.278C626.364 421.616 615.549 411.547 608.463 403.715C599.512 394.205 594.104 389.729 591.307 389.729C588.697 389.729 582.729 393.459 576.949 399.053C556.996 417.141 531.822 425.719 498.816 425.532C468.608 425.346 446.604 417.514 432.618 401.477C425.532 393.459 416.582 375.185 414.717 364.929L413.598 358.029H529.771C593.731 358.029 647.249 357.283 648.555 356.351C654.708 352.435 656.2 325.396 651.725 295.933C641.096 225.446 598.953 178.082 532.755 162.232C521.007 159.435 511.31 158.502 490.425 158.689C475.507 158.689 462.641 159.062 461.522 159.435ZM511.31 231.414C524.923 234.211 541.705 243.534 549.537 252.485C556.81 260.69 564.269 275.421 566.133 284.931L567.439 290.899H415.463L416.768 284.931C422.362 259.757 443.993 238.686 470.845 231.973C482.78 228.989 498.816 228.803 511.31 231.414ZM1139.35 161.113C1073.15 175.844 1028.4 222.463 1014.42 291.272C1006.02 331.923 1010.69 379.287 1026.54 413.225C1048.17 460.216 1087.51 490.612 1141.22 501.614C1158.19 505.157 1164.9 505.529 1191.57 504.784C1214.13 504.038 1226.25 502.732 1236.69 499.935C1268.58 491.544 1296.55 476.253 1317.99 455.741C1334.4 439.891 1334.4 439.145 1316.69 424.414C1308.48 417.7 1297.48 407.071 1292.26 400.918C1280.14 386.932 1276.97 386.746 1263.36 399.053C1243.03 417.514 1218.79 425.719 1185.04 425.532C1137.67 425.346 1110.08 405.02 1101.13 363.996L1099.82 359.157H1336.08C1344.1 353.376 1341.12 292.204 1331.42 263.86C1329.56 258.266 1324.52 247.077 1320.42 239.245C1298.6 197.475 1263.73 171.556 1215.25 161.3C1199.77 157.943 1154.08 157.943 1139.35 161.113ZM1197.53 231.414C1210.21 234.211 1223.27 240.737 1232.59 249.129C1240.42 256.401 1253.1 279.337 1253.1 286.423V290.899H1101.68L1102.99 285.677C1112.69 245.772 1153.71 222.09 1197.53 231.414Z" fill="#F044BF"/>
</svg>
