<svg width="300" height="54" viewBox="0 0 300 54" fill="none" xmlns="http://www.w3.org/2000/svg">
<path d="M179.681 3.20398C179.464 3.20398 179.289 3.90242 179.289 4.77026V49.9374C179.289 50.8052 179.464 51.5044 179.681 51.5044C179.897 51.5044 180.072 50.8052 180.072 49.9374V4.77026C180.072 3.90242 179.897 3.20398 179.681 3.20398ZM95.5126 7.25744C95.315 7.26082 95.1191 7.2785 94.9298 7.34198C94.1252 7.54181 93.5609 8.34534 93.596 9.17171C93.5981 21.6629 93.596 34.1558 93.596 46.647C93.4864 47.5837 94.3141 48.5144 95.2635 48.4269C100.577 48.4186 105.89 48.4246 111.204 48.4246C112.944 48.4288 114.689 48.2687 116.388 47.8691C120.206 46.999 123.737 44.7609 125.991 41.5179C128.614 37.819 129.667 33.2215 129.82 28.74C129.938 24.8622 129.458 20.8862 127.878 17.3163C126.347 13.784 123.563 10.7989 120.09 9.15657C117.085 7.67661 113.693 7.23128 110.379 7.26042C105.62 7.26042 100.862 7.26438 96.1051 7.25819C95.9096 7.26445 95.7101 7.25413 95.5126 7.25744ZM133.75 7.25823C133.046 7.22077 132.223 7.42294 131.894 8.12025C131.47 8.85919 131.866 9.69397 132.097 10.4225C136.06 22.6931 140.031 34.9592 143.994 47.2298C144.172 47.9188 144.822 48.4605 145.544 48.4209C148.1 48.4313 150.657 48.4122 153.215 48.433C153.937 48.5017 154.686 48.0317 154.897 47.3219C159.071 34.7141 163.226 22.0975 167.388 9.48349C167.793 8.52391 167.094 7.38326 166.072 7.2771C164.052 7.2438 162.029 7.2671 160.008 7.26502C159.323 7.24629 158.643 7.69793 158.473 8.38067C155.704 17.0523 152.94 25.7237 150.17 34.3953C149.976 35.0385 149.786 35.6878 149.501 36.2998C146.632 27.0412 143.678 17.8053 140.778 8.55504C140.635 7.86398 140.091 7.30036 139.365 7.28163C137.494 7.2296 135.621 7.28091 133.75 7.25823ZM57.6372 7.26046C56.7023 7.16888 55.8438 8.0161 55.9327 8.96111C55.9286 21.5918 55.9307 34.2223 55.9327 46.8508C55.879 47.5377 56.388 48.0919 56.9465 48.402C63.1082 48.452 69.2697 48.408 75.4294 48.4247C78.4492 48.4621 81.5396 47.9504 84.2368 46.5308C86.9092 45.1882 89.0452 42.7422 89.7939 39.8052C90.5675 36.6933 90.326 33.2007 88.6609 30.4135C87.3868 28.1946 85.0946 26.7498 82.6932 26.0483C84.6974 25.172 86.4517 23.6257 87.3928 21.6212C88.2594 19.8415 88.3777 17.7971 88.1771 15.855C87.9433 13.2594 86.6298 10.6554 84.3463 9.31287C81.6967 7.631 78.4763 7.36454 75.4234 7.26046C69.4954 7.26255 63.5672 7.26255 57.6372 7.26046ZM262.749 9.04339C262.621 9.04339 262.493 9.05193 262.367 9.06452C262.247 9.08539 262.201 9.2147 262.208 9.32192C262.194 11.246 262.219 13.1708 262.195 15.0949C262.028 14.9035 261.889 14.6903 261.717 14.5046C261.079 13.8031 260.201 13.2989 259.25 13.1859C258.065 13.0571 256.823 13.4265 255.932 14.2231C255.006 15.0448 254.471 16.2375 254.311 17.4492C254.14 18.7624 254.296 20.1525 254.938 21.3268C255.394 22.1766 256.119 22.8932 257.012 23.2788C258.105 23.7559 259.429 23.8074 260.494 23.226C261.186 22.8806 261.722 22.313 262.199 21.7194C262.225 22.2151 262.173 22.715 262.227 23.2086C262.321 23.4245 262.609 23.3343 262.795 23.3573C263.001 23.3818 263.312 23.3421 263.274 23.0622C263.279 18.5046 263.275 13.9468 263.276 9.38986C263.276 9.27329 263.269 9.11096 263.131 9.07282C263.006 9.05196 262.878 9.0433 262.749 9.04339ZM192.911 9.05546C192.782 9.06666 192.606 9.03781 192.522 9.1468C192.463 9.25429 192.484 9.37757 192.476 9.49252C192.479 14.046 192.477 18.6 192.477 23.1535C192.488 23.2573 192.462 23.3817 192.548 23.4675C192.648 23.5422 192.793 23.5197 192.914 23.5294C193.977 23.5279 195.04 23.5287 196.103 23.5287C197.112 23.5242 198.134 23.5652 199.13 23.3913C200.232 23.2114 201.342 22.8022 202.062 22.0318C202.86 21.1898 203.079 20.0415 202.957 18.9838C202.843 18.0074 202.249 17.0627 201.291 16.5177C200.673 16.1467 199.928 15.981 199.189 15.9093C199.824 15.7645 200.45 15.5527 200.955 15.1794C201.775 14.6024 202.29 13.7002 202.254 12.7805C202.251 11.7825 201.905 10.7161 200.997 10.0488C199.988 9.30306 198.61 9.1048 197.323 9.06449C195.853 9.04657 194.382 9.06142 192.911 9.05546ZM194.384 10.0798C195.392 10.0858 196.4 10.0746 197.408 10.0858C198.309 10.1067 199.27 10.2615 199.97 10.7856C200.587 11.2387 200.859 11.9481 200.893 12.6289C200.966 13.3918 200.646 14.1896 199.982 14.7069C199.246 15.2944 198.211 15.4899 197.236 15.5108C196.256 15.5183 195.275 15.5108 194.294 15.5146C194.161 15.5072 194.004 15.5258 193.896 15.4407C193.814 15.3399 193.838 15.2091 193.829 15.0934C193.832 13.549 193.83 12.0047 193.83 10.461C193.839 10.3408 193.812 10.1705 193.967 10.1108C194.101 10.0727 194.245 10.0843 194.384 10.0798ZM232.899 13.1799C232.582 13.1813 232.267 13.2102 231.956 13.2659C230.946 13.4422 229.992 13.9498 229.313 14.7182C228.554 15.5652 228.151 16.6853 228.058 17.807C227.952 19.0612 228.159 20.3761 228.829 21.4604C229.376 22.3606 230.251 23.0558 231.255 23.386C232.65 23.8458 234.24 23.7066 235.518 22.9784C235.749 22.8431 236.008 22.6907 236.105 22.4274C236.211 22.1568 235.975 21.815 235.676 21.856C235.29 21.9027 235.016 22.2171 234.669 22.3617C233.401 22.9525 231.781 22.8791 230.651 22.0228C229.772 21.3522 229.325 20.2621 229.208 19.1906C229.085 18.0336 229.204 16.8005 229.8 15.7773C230.228 15.0325 230.956 14.47 231.786 14.2404C232.845 13.9433 234.021 14.0823 234.976 14.6284C235.222 14.7587 235.457 14.9553 235.749 14.956C236.024 14.9366 236.206 14.6154 236.098 14.3665C236.006 14.1549 235.802 14.0234 235.612 13.9068C234.798 13.4173 233.847 13.1759 232.899 13.1799ZM242.065 13.1799C241.789 13.1818 241.514 13.207 241.243 13.2554C240.181 13.4417 239.201 14.0386 238.551 14.8949C237.608 16.0987 237.309 17.6998 237.476 19.1929C237.608 20.4384 238.143 21.6653 239.081 22.518C240.561 23.8858 242.993 24.0234 244.649 22.8893C245.665 22.1993 246.334 21.0793 246.597 19.8957C246.852 18.7393 246.813 17.511 246.44 16.3842C246.088 15.3358 245.395 14.38 244.433 13.8079C243.724 13.3789 242.894 13.174 242.065 13.1799ZM270.499 13.1814C270.211 13.1901 269.924 13.2272 269.645 13.2916C268.696 13.5082 267.845 14.0886 267.275 14.8715C266.433 15.9954 266.128 17.4423 266.207 18.8238C266.272 20.0377 266.674 21.2702 267.509 22.179C268.19 22.9338 269.152 23.4053 270.153 23.5664C271.374 23.7751 272.675 23.5885 273.764 22.992C274.052 22.8092 274.372 22.6333 274.559 22.3376C274.729 22.062 274.449 21.6651 274.13 21.7435C273.805 21.8176 273.555 22.057 273.263 22.2002C272.487 22.5995 271.601 22.8328 270.724 22.7414C269.832 22.6766 268.935 22.3157 268.35 21.6242C267.648 20.8032 267.393 19.7051 267.324 18.6525C269.738 18.6517 272.152 18.6524 274.565 18.6517C274.694 18.6581 274.881 18.6261 274.879 18.4584C274.907 17.7446 274.804 17.0276 274.607 16.3411C274.322 15.3819 273.771 14.4706 272.94 13.8864C272.235 13.3834 271.362 13.1554 270.499 13.1814ZM210.306 13.1874C210.078 13.179 209.851 13.1825 209.627 13.1942C208.556 13.2964 207.44 13.6211 206.659 14.3846C206.454 14.5558 206.382 14.9086 206.624 15.0805C206.86 15.2518 207.148 15.0787 207.358 14.95C208.381 14.2426 209.704 13.9084 210.934 14.1891C211.504 14.3121 212.024 14.672 212.286 15.1915C212.717 16.0118 212.643 16.9624 212.649 17.8561C211.793 17.7337 210.922 17.7185 210.06 17.7761C209.129 17.848 208.183 18.0171 207.351 18.4524C206.726 18.7726 206.19 19.2997 205.972 19.9696C205.648 20.9604 205.846 22.1738 206.664 22.8825C207.303 23.4488 208.19 23.6638 209.033 23.6494C210.367 23.6286 211.652 23.0655 212.649 22.21C212.677 22.5647 212.587 22.9437 212.698 23.2841C212.909 23.4179 213.194 23.334 213.434 23.352C213.604 23.3801 213.734 23.2376 213.709 23.075C213.714 21.1538 213.709 19.2323 213.712 17.3111C213.713 16.6081 213.658 15.8931 213.427 15.224C213.22 14.6095 212.827 14.0367 212.255 13.6999C211.67 13.347 210.988 13.2128 210.306 13.1874ZM221.732 13.466C220.468 13.5199 219.28 14.3063 218.7 15.4187C218.653 15.5094 218.602 15.6015 218.519 15.6656C218.496 15.1043 218.523 14.5427 218.507 13.9808C218.509 13.8764 218.456 13.7519 218.335 13.7483C218.091 13.7289 217.841 13.7199 217.599 13.7573C217.447 13.8084 217.461 13.9908 217.459 14.1182C217.46 17.164 217.459 20.2088 217.459 23.2547C217.459 23.3777 217.462 23.5548 217.611 23.5936C217.847 23.631 218.091 23.6242 218.329 23.6019C218.497 23.5825 218.515 23.3886 218.512 23.2562C218.511 21.8409 218.511 20.4249 218.512 19.0095C218.506 17.9388 218.709 16.8392 219.27 15.9124C219.681 15.2288 220.326 14.6569 221.111 14.4525C221.799 14.2748 222.577 14.305 223.196 14.6828C223.717 15.0015 224.037 15.5608 224.2 16.1343C224.436 16.9265 224.407 17.7603 224.406 18.5777V23.2585C224.398 23.3959 224.427 23.5948 224.604 23.6042C224.834 23.6214 225.071 23.6318 225.301 23.5951C225.454 23.5613 225.456 23.3792 225.458 23.2547C225.458 21.4558 225.458 19.6573 225.458 17.8591C225.46 17.0741 225.4 16.2759 225.135 15.5312C224.918 14.9088 224.521 14.3345 223.959 13.9755C223.302 13.5582 222.499 13.4372 221.732 13.466ZM258.91 14.0683C259.622 14.0824 260.333 14.302 260.877 14.7688C261.691 15.4474 262.088 16.4947 262.224 17.5179C262.364 18.6527 262.262 19.8472 261.766 20.8905C261.392 21.6806 260.717 22.3561 259.865 22.6108C258.964 22.8799 257.935 22.8029 257.127 22.3021C256.219 21.7344 255.702 20.7136 255.502 19.6911C255.264 18.4189 255.349 17.046 255.929 15.8724C256.363 14.9823 257.206 14.2737 258.202 14.1212C258.434 14.0818 258.672 14.0636 258.91 14.0683ZM270.704 14.0683C271.395 14.0847 272.079 14.3359 272.576 14.8285C273.351 15.5905 273.655 16.6931 273.757 17.7429C271.62 17.7436 269.482 17.7436 267.345 17.7429C267.473 16.6211 267.892 15.4615 268.785 14.7182C269.313 14.2703 270.012 14.052 270.704 14.0683ZM242.211 14.0887C242.886 14.1087 243.556 14.313 244.091 14.7296C244.956 15.3858 245.409 16.4469 245.561 17.4945C245.72 18.6566 245.602 19.8878 245.061 20.9426C244.668 21.7125 243.988 22.3574 243.148 22.6085C242.111 22.9194 240.896 22.7713 240.047 22.0719C239.196 21.3883 238.759 20.3149 238.62 19.2586C238.465 18.0217 238.626 16.6984 239.297 15.6248C239.782 14.8355 240.612 14.2546 241.539 14.1287C241.76 14.0956 241.986 14.0821 242.211 14.0887ZM66.5329 14.3129C69.015 14.3296 71.4996 14.3042 73.9816 14.325C75.5267 14.4186 77.2188 14.6417 78.3853 15.772C79.4319 16.8128 79.6428 18.3967 79.498 19.8058C79.3842 20.9861 78.846 22.1787 77.8615 22.8697C76.7011 23.7502 75.1852 23.9441 73.7725 23.9212C70.9492 23.9087 68.1259 23.9421 65.3025 23.9046C65.0967 23.8878 65.0083 23.7468 64.9696 23.5898C64.8931 21.0774 64.9609 18.561 64.9319 16.0445C64.9443 15.5408 64.8724 14.9414 65.2799 14.5605C65.6418 14.2941 66.1068 14.3129 66.5329 14.3129ZM103.334 14.9085C105.539 14.9043 107.746 14.8829 109.953 14.9183C112.732 15.0203 115.68 15.805 117.656 17.8886C119.761 20.0304 120.492 23.122 120.738 26.034C120.967 29.148 120.849 32.4074 119.552 35.2966C118.551 37.5446 116.657 39.4073 114.319 40.1962C112.536 40.8602 110.6 40.8526 108.728 40.7797C107.003 40.7734 105.276 40.7998 103.551 40.7707C102.92 40.8019 102.56 40.1279 102.614 39.5659C102.616 31.6624 102.606 23.7563 102.62 15.8528C102.593 15.4032 102.825 14.9644 103.334 14.9085ZM197.494 16.5178C198.543 16.5088 199.635 16.7326 200.46 17.3149C201.961 18.3488 202.053 20.5655 200.617 21.6733C199.793 22.3033 198.654 22.4993 197.584 22.521C196.433 22.5254 195.282 22.527 194.132 22.521C193.957 22.5382 193.812 22.4151 193.835 22.2621C193.824 20.469 193.833 18.6747 193.83 16.8816C193.821 16.7428 193.85 16.5425 194.053 16.5299C195.199 16.5007 196.347 16.5268 197.494 16.5178ZM210.707 18.6532C211.356 18.6457 212.005 18.6972 212.649 18.7717C212.646 19.5445 212.653 20.317 212.646 21.0898C211.773 21.8619 210.733 22.5171 209.556 22.6999C208.838 22.81 208.031 22.7198 207.466 22.2341C206.663 21.5448 206.703 20.148 207.529 19.4911C208.232 18.9154 209.175 18.7574 210.059 18.6819C210.275 18.665 210.491 18.6557 210.707 18.6532ZM204.878 29.6187C204.613 29.6071 204.345 29.6428 204.096 29.7153C203.621 29.8626 203.357 30.303 203.194 30.7177C202.207 33.2514 201.224 35.7861 200.238 38.3197C199.686 39.7465 199.119 41.1677 198.592 42.6026C197.107 38.6878 195.567 34.7911 194.057 30.8846C193.912 30.5124 193.748 30.1152 193.401 29.8663C193.037 29.6197 192.558 29.5935 192.125 29.6353C191.65 29.6824 191.158 29.9433 191.015 30.3962C190.851 30.9223 191.052 31.4684 191.259 31.9572C192.912 36.0387 194.563 40.1207 196.216 44.2029C196.435 44.7545 196.777 45.2945 197.32 45.6122C197.963 45.9814 198.791 46.0159 199.491 45.7805C200.229 45.5197 200.704 44.8627 200.972 44.1938C202.66 40.0249 204.347 35.8551 206.035 31.6862C206.167 31.3506 206.253 30.9912 206.221 30.6325C206.191 30.2872 205.967 29.9628 205.638 29.8044C205.403 29.6893 205.142 29.6303 204.878 29.6187ZM283.924 29.7901C283.724 29.777 283.52 29.8124 283.337 29.8942H283.336C282.876 30.0905 282.576 30.6374 282.594 31.1888C282.594 34.7928 282.59 38.3975 282.596 42.0025C282.617 43.0488 282.733 44.1864 283.347 45.0211C283.911 45.785 284.828 46.0508 285.675 46.0681C286.336 46.0738 287.047 46.0361 287.621 45.6235C288.166 45.2272 288.161 44.1862 287.627 43.787C287.286 43.541 286.88 43.732 286.515 43.7636C286.101 43.8057 285.618 43.7215 285.358 43.3137C285.069 42.8513 285.071 42.2534 285.055 41.7097C285.052 38.2329 285.054 34.7561 285.055 31.2793C285.062 30.9252 284.992 30.5553 284.793 30.2739C284.584 29.9694 284.258 29.8118 283.924 29.7901ZM74.8089 30.0988C76.5236 30.13 78.389 30.4613 79.6693 31.7081C80.9538 32.8987 81.2768 34.7762 81.1775 36.456C81.1444 37.8361 80.5837 39.2581 79.4564 40.0928C78.1285 41.0878 76.4179 41.3766 74.7984 41.3745C71.6978 41.3724 68.5957 41.3931 65.4973 41.364C65.1125 41.4056 64.918 40.9374 64.9387 40.6106C64.9366 37.3468 64.9346 34.081 64.9387 30.8151C64.9035 30.5216 64.9964 30.3011 65.3063 30.1116C68.473 30.0866 71.6402 30.1051 74.8089 30.0988ZM274.777 34.1885C273.953 34.1917 273.129 34.3277 272.371 34.658C271.49 35.0367 270.731 35.6936 270.232 36.5141C269.581 37.5704 269.34 38.8337 269.35 40.0626C269.355 41.3082 269.607 42.5848 270.27 43.6534C270.818 44.55 271.666 45.2512 272.64 45.6386C273.916 46.1544 275.338 46.1953 276.684 45.9805C277.304 45.8753 277.928 45.7346 278.497 45.4582C278.846 45.2833 279.201 45.0255 279.311 44.6301C279.428 44.2086 279.33 43.6928 278.969 43.4179C278.615 43.1465 278.12 43.183 277.728 43.3484C277.176 43.5835 276.63 43.8663 276.027 43.9432C275.103 44.0622 274.099 43.9037 273.349 43.3205C272.592 42.7191 272.089 41.816 271.94 40.8627C273.759 40.8613 275.578 40.862 277.398 40.862C277.971 40.8562 278.592 40.9145 279.104 40.6069C279.543 40.3464 279.713 39.8174 279.744 39.335C279.794 38.402 279.666 37.4284 279.19 36.6108C278.841 36.0174 278.395 35.4721 277.848 35.052C277.202 34.5558 276.401 34.3032 275.598 34.2278C275.326 34.2015 275.052 34.1874 274.777 34.1885ZM212.154 34.1892C211.328 34.1775 210.5 34.2973 209.732 34.6074C208.775 34.9883 207.951 35.6934 207.431 36.5843C206.737 37.7545 206.534 39.1523 206.602 40.4943C206.665 41.7893 207.03 43.1091 207.849 44.1342C208.525 44.9953 209.505 45.5894 210.557 45.8658C211.906 46.2234 213.34 46.1507 214.687 45.825C215.242 45.6799 215.821 45.504 216.254 45.1087C216.736 44.6763 216.716 43.7946 216.193 43.405C215.828 43.1409 215.33 43.1878 214.937 43.3612C214.404 43.5912 213.874 43.8604 213.291 43.9394C212.353 44.0664 211.331 43.9054 210.573 43.3069C209.825 42.7047 209.329 41.8087 209.18 40.862C211.207 40.8605 213.232 40.864 215.258 40.8604C215.704 40.8532 216.19 40.7798 216.531 40.4649C216.849 40.1718 216.957 39.7257 216.987 39.3093C217.029 38.4104 216.912 37.4744 216.467 36.6779C216.156 36.12 215.75 35.6125 215.266 35.1947C214.628 34.6426 213.809 34.3378 212.977 34.2428C212.705 34.2118 212.43 34.1931 212.154 34.1892ZM237.654 34.1892C237.042 34.2114 236.433 34.3156 235.852 34.5093C234.771 34.8698 233.83 35.6311 233.265 36.6228C232.528 37.8938 232.358 39.4168 232.486 40.8597C232.603 42.1699 233.064 43.4901 233.983 44.4535C234.818 45.3443 235.991 45.8597 237.188 46.0258C238.43 46.1977 239.706 46.0743 240.908 45.7254C241.336 45.5904 241.771 45.4222 242.106 45.1132C242.604 44.6736 242.573 43.7552 242.014 43.3801C241.65 43.1421 241.172 43.1944 240.79 43.3627C240.243 43.6007 239.696 43.8759 239.095 43.947C238.158 44.0623 237.139 43.8883 236.392 43.2774C235.667 42.6739 235.183 41.7934 235.037 40.862C236.991 40.862 238.944 40.8612 240.898 40.8627C241.363 40.8656 241.866 40.8403 242.263 40.566C242.615 40.3252 242.778 39.8988 242.825 39.4896C242.937 38.3441 242.719 37.1268 242.019 36.1902C241.416 35.3117 240.531 34.5985 239.479 34.3605C238.883 34.2267 238.267 34.167 237.654 34.1892ZM265.354 34.2972C265.038 34.3025 264.719 34.3754 264.486 34.5968C264.192 34.8848 264.131 35.3208 264.125 35.714C264.123 37.3085 264.126 38.9036 264.123 40.4989C264.118 41.2091 264.008 41.939 263.666 42.5702C263.128 43.5205 261.971 44.1376 260.883 43.8881C260.282 43.7517 259.736 43.33 259.511 42.746C259.185 41.9444 259.172 41.0637 259.15 40.2113C259.142 38.7103 259.15 37.2089 259.146 35.7079C259.141 35.3409 259.089 34.9429 258.842 34.6534C258.614 34.3901 258.252 34.303 257.917 34.2979C257.557 34.2892 257.157 34.3536 256.902 34.63C256.635 34.9202 256.581 35.3353 256.575 35.714C256.573 36.8493 256.574 37.9837 256.574 39.119C256.577 40.1049 256.55 41.0942 256.666 42.0757C256.776 43.0029 257.003 43.9759 257.639 44.6912C258.376 45.5291 259.509 45.9089 260.599 45.948C261.957 45.9988 263.405 45.6181 264.369 44.6105C264.358 44.9551 264.389 45.3339 264.63 45.6031C264.963 45.981 265.525 46.0505 265.994 45.9526C266.365 45.8807 266.69 45.587 266.76 45.2091C266.833 44.7767 266.753 44.3362 266.746 43.9017C266.656 41.4141 266.714 38.9254 266.698 36.4371C266.681 35.909 266.765 35.3454 266.525 34.855C266.369 34.5263 266.016 34.3412 265.665 34.3115C265.564 34.3013 265.459 34.2954 265.354 34.2972ZM225.298 34.2994C224.692 34.3119 224.087 34.4013 223.524 34.6292C222.959 34.8556 222.46 35.22 222.025 35.6407C222.035 35.315 221.983 34.9655 221.759 34.713C221.361 34.2582 220.656 34.1953 220.122 34.4209C219.759 34.5725 219.567 34.9692 219.566 35.3486C219.549 36.0501 219.624 36.7516 219.632 37.4531C219.677 39.6527 219.649 41.8523 219.657 44.0519C219.663 44.527 219.613 45.0379 219.849 45.471C220.011 45.7793 220.352 45.9463 220.687 45.9775C221.066 46.0137 221.49 45.9925 221.803 45.7495C222.097 45.5181 222.197 45.1304 222.221 44.7735C222.266 42.9366 222.168 41.0948 222.296 39.2602C222.353 38.246 222.844 37.1863 223.782 36.7118C224.467 36.368 225.306 36.3206 226.022 36.5956C226.598 36.8176 226.94 37.3895 227.089 37.9634C227.28 38.6946 227.282 39.4581 227.299 40.209C227.307 41.612 227.301 43.015 227.302 44.4187C227.299 44.8141 227.323 45.2429 227.561 45.5759C227.759 45.8523 228.105 45.9706 228.432 45.9873C228.837 46.0134 229.304 45.9534 229.58 45.6212C229.852 45.2867 229.878 44.8323 229.876 44.4195C229.872 42.8714 229.884 41.3231 229.869 39.775C229.851 38.9958 229.826 38.2124 229.673 37.4463C229.501 36.5968 229.076 35.7832 228.41 35.2195C227.717 34.6239 226.801 34.3607 225.903 34.31C225.702 34.2993 225.5 34.2952 225.298 34.2994ZM294.713 34.4292C293.611 34.39 292.496 34.5182 291.443 34.8527C291.05 34.9898 290.643 35.1415 290.336 35.4332C289.862 35.8757 289.898 36.7724 290.456 37.1308C290.881 37.4021 291.439 37.3596 291.876 37.1383C292.559 36.801 293.295 36.5378 294.065 36.5284C294.739 36.5117 295.506 36.5746 296.009 37.0802C296.461 37.543 296.488 38.2302 296.539 38.8375C295.471 38.7859 294.396 38.7726 293.336 38.9235C292.177 39.0911 290.96 39.4324 290.114 40.292C289.271 41.1444 289.071 42.465 289.354 43.5975C289.529 44.2895 289.957 44.9124 290.542 45.3222C291.205 45.7952 292.02 46.0089 292.824 46.059C293.767 46.1148 294.735 45.9757 295.597 45.5789C296.045 45.3794 296.413 45.0474 296.745 44.692C296.736 45.0511 296.757 45.4465 296.996 45.7374C297.228 46.0305 297.624 46.1257 297.983 46.1141C298.311 46.1119 298.672 46.0145 298.874 45.7367C299.095 45.4363 299.1 45.0451 299.09 44.6882C299.022 42.8252 299.055 40.9601 299.025 39.0964C299.014 38.3506 298.955 37.5978 298.726 36.8839C298.54 36.2593 298.143 35.7029 297.619 35.3184C296.785 34.7018 295.731 34.4764 294.713 34.4292ZM252.413 34.4768C250.166 34.4789 247.919 34.4754 245.672 34.479C245.269 34.4797 244.771 34.5771 244.587 34.9863C244.443 35.3454 244.445 35.798 244.674 36.1223C244.946 36.4625 245.419 36.489 245.821 36.4869C247.559 36.4767 249.298 36.5071 251.034 36.4657C249.319 38.4346 247.545 40.3528 245.803 42.2999C245.338 42.8324 244.797 43.3373 244.547 44.0148C244.409 44.432 244.356 44.9447 244.639 45.3147C244.933 45.6897 245.44 45.794 245.892 45.7947C248.355 45.7947 250.819 45.7962 253.283 45.794C253.689 45.7926 254.184 45.6985 254.381 45.2958C254.528 44.9585 254.526 44.5393 254.341 44.2164C254.132 43.8856 253.711 43.8008 253.347 43.7892C252.288 43.7826 251.229 43.7883 250.17 43.7862C249.337 43.7905 248.503 43.7687 247.672 43.8216C248.273 43.0628 248.929 42.3513 249.57 41.6266C250.477 40.6051 251.384 39.5834 252.29 38.5627C252.698 38.0977 253.129 37.6505 253.479 37.1383C253.762 36.7277 254.121 36.3116 254.124 35.7841C254.147 35.4098 253.993 35.0224 253.688 34.7961C253.328 34.516 252.854 34.4644 252.413 34.4768ZM211.948 36.1963C212.302 36.1927 212.656 36.2578 212.981 36.3903C213.798 36.7443 214.379 37.5445 214.568 38.4042C214.607 38.5732 214.64 38.8909 214.38 38.8684C212.659 38.8757 210.939 38.8699 209.219 38.8706C209.401 38.1009 209.72 37.3229 210.328 36.7918C210.772 36.3987 211.359 36.2023 211.948 36.1963ZM237.912 36.1978C238.12 36.2036 238.328 36.2323 238.527 36.2839C239.108 36.4333 239.607 36.8261 239.943 37.318C240.221 37.7206 240.443 38.1911 240.449 38.6895C240.454 38.8426 240.296 38.8801 240.175 38.8714C238.475 38.8714 236.776 38.8721 235.076 38.8707C235.258 38.101 235.578 37.3222 236.186 36.7911C236.656 36.3727 237.288 36.1807 237.912 36.1978ZM274.833 36.1986C275.04 36.2057 275.246 36.2358 275.445 36.2884C276.046 36.4466 276.554 36.8664 276.89 37.3822C277.143 37.7703 277.348 38.218 277.351 38.6895C277.358 38.8201 277.226 38.8801 277.115 38.87C275.403 38.8736 273.691 38.87 271.979 38.8715C272.161 38.0931 272.487 37.3063 273.107 36.7753C273.58 36.3634 274.211 36.1772 274.833 36.1986ZM295.876 40.6989C296.11 40.7039 296.344 40.7157 296.577 40.7329C296.566 41.3873 296.524 42.0683 296.234 42.6668C295.844 43.4089 295.075 43.8988 294.268 44.0685C293.654 44.1947 292.945 44.1871 292.431 43.7802C291.783 43.2752 291.761 42.2128 292.309 41.6259C292.693 41.2094 293.246 41.0063 293.785 40.8801C294.471 40.731 295.174 40.6841 295.876 40.6989Z" fill="white"/>
<path d="M44.2445 2.76411C45.0263 2.43151 45.8957 2.15516 46.7504 2.33153C47.3351 2.44818 47.7982 2.93075 47.9287 3.50776C48.2752 4.80898 48.2204 6.17478 48.1516 7.50725C48.0322 9.44103 47.6954 11.3512 47.3982 13.2628C45.9748 22.0318 44.4847 30.7897 42.9835 39.5455C42.9266 39.9489 42.7461 40.3149 42.5655 40.6738C42.3676 39.7872 41.8858 39.0095 41.499 38.1985C39.3041 33.8636 37.128 29.5197 34.9311 25.1862C32.8251 20.9757 30.6837 16.7838 28.584 12.5712C33.2105 9.64934 37.8509 6.7504 42.4829 3.83828C43.0731 3.48485 43.6314 3.07796 44.2445 2.76411Z" fill="#D80E3C"/>
<path d="M19.921 3.04371C21.0709 2.81458 22.3117 3.2416 23.0977 4.10607C23.5595 4.67336 23.808 5.3698 24.1649 6.00097C24.6426 7.02515 25.1766 8.02224 25.6627 9.04224C26.0695 9.91574 26.5549 10.7538 26.9229 11.6447C26.8667 11.9433 26.6986 12.2085 26.6 12.4953C25.7064 14.9137 25.044 17.412 24.5086 19.9325C23.44 24.9249 22.7422 29.9882 22.1576 35.057C21.7882 38.4475 21.4451 41.8401 21.2028 45.2418C21.0959 46.2646 21.0848 47.295 20.9688 48.3185C20.957 47.8442 21.0153 47.3721 21.0445 46.8999C20.8994 47.7352 21.0181 48.5886 20.889 49.426C20.864 50.1509 20.8077 50.8744 20.7779 51.5993C20.5675 51.5452 20.4411 51.3549 20.3113 51.1973C20.1175 50.957 19.971 50.6834 19.8391 50.4064C18.0511 46.9041 16.2639 43.4004 14.4801 39.8966C14.028 38.9884 13.5434 38.0969 13.1011 37.1831C12.4859 36.0478 11.9429 34.8744 11.3312 33.737C10.6618 32.3573 9.91884 31.0158 9.25017 29.6368C8.59887 28.4037 7.99409 27.1455 7.3407 25.913C5.65272 22.5655 3.9446 19.2278 2.24066 15.8886C2.0629 15.5414 1.88931 15.1859 1.81154 14.8012C1.71225 14.0624 1.7671 13.2834 2.10595 12.6085C2.44966 11.9891 2.94404 11.4336 3.59187 11.126C4.78269 10.5372 5.96171 9.92408 7.156 9.34221C8.23711 8.7652 9.3571 8.26318 10.4361 7.6827C12.9594 6.42453 15.4765 5.15386 17.9963 3.88943C18.6254 3.58253 19.2343 3.20828 19.921 3.04371Z" fill="#FDC800"/>
<path d="M26.9152 14.0971C27.0596 13.6701 27.1964 13.2396 27.37 12.823C28.6796 15.4109 29.9398 18.023 31.2341 20.6185C34.2094 26.6448 37.1882 32.6698 40.1649 38.6961C40.4114 39.2273 40.7343 39.7355 40.8364 40.3216C41.0231 41.318 40.7641 42.4067 40.0781 43.1643C39.5928 43.608 39.0019 43.9079 38.4263 44.2155C33.9699 46.6124 29.5135 49.0087 25.0578 51.4056C24.5343 51.6798 24.0288 52.0159 23.4407 52.1381C22.8498 52.2735 22.2179 52.2554 21.6437 52.0527C21.9922 45.7563 22.5158 39.4682 23.2587 33.2051C23.6851 29.6521 24.1899 26.106 24.8453 22.587C25.389 19.7249 26.014 16.8704 26.9152 14.0971Z" fill="#0067B1"/>
</svg>
