<svg width="721" height="74" viewBox="0 0 721 74" fill="none" xmlns="http://www.w3.org/2000/svg">
<g clip-path="url(#clip0_94_2)">
<path d="M653.8 72.6C674.8 54.6 704.3 37.1 720.5 30.8C718 29.2 714.1 26.9 709.7 24.4C688.8 31.3 664.4 46.6 642.6 63.9C646.3 66.7 650.2 69.6 653.8 72.6Z" fill="#888888"/>
<path d="M644.2 23.7C641.1 22.2 637.7 20.8 635.1 19.6C627.2 23.5 616.9 29.4 603.9 38.7C606.7 40.2 609.7 42 612.9 43.8C622.9 36.4 633 29.4 644.2 23.7Z" fill="#E7E7E7"/>
<path d="M662.9 15.1C659.1 13 645.9 8.1 636.8 6C634.1 7 630.3 8.5 627.7 9.6C631 10.5 643.3 13.8 653.8 19.1C656.5 17.8 660.3 16.2 662.9 15.1Z" fill="#888888"/>
<path d="M618.2 13.8C606.5 19.2 594.2 26.6 587.5 30.9C589.9 32 592.3 32.9 595.6 34.5C610.4 24.5 622 18.4 626.6 16.4C623.3 15.2 620.2 14.4 618.2 13.8Z" fill="#E7E7E7"/>
<path d="M671.7 12C674.4 11.1 677.5 10.3 680.2 9.5C672.4 6.2 662.6 2.7 653.8 0.5C652.4 0.9 648.2 2 645.3 2.9C648.3 3.8 658.2 6.1 671.7 12ZM622.4 49.6C625.6 51.5 629 54.1 632.3 56.3C654.2 39.3 675.8 26.2 699.5 18.8C696.2 17.1 693.3 15.6 689.6 13.8C675.4 17.4 651.1 27.1 622.4 49.6Z" fill="#888888"/>
<path d="M0.5 67.4H16.5C24.6 67.4 28.4 63.2 28.4 57.3C28.4 52.5 25.9 49.3 20.7 48.3C25.3 47.2 27.4 44.4 27.4 40.3C27.4 35.1 23.6 30.9 15.5 30.9H0.6V67.4H0.5ZM14.4 51.9C17.4 51.9 19.5 53.4 19.5 56.4C19.5 59.6 17.5 60.9 14.4 60.9H9.2V51.8H14.4V51.9ZM13.4 37.3C16.4 37.3 18.5 38.6 18.5 41.6C18.5 44.6 16.5 45.9 13.4 45.9H9.2V37.3H13.4ZM60.7 30.8H51.7L38 67.4H47.1L49.6 59.8H62.8L65.3 67.4H74.5L60.7 30.8ZM56.2 39.6L60.5 53.1H51.7L56.2 39.6ZM120.1 30.8H111.8V55.3L96.2 30.8H86.9V67.4H95.2V43L110.8 67.4H120.1V30.8ZM158.4 67.4L146.4 48.8V67.4H137.5V30.8H146.4V48.4L157.8 30.8H167.7L155.7 48.4L168.8 67.4H158.4ZM200.3 49.1C200.3 56.4 204.7 60.9 210.4 60.9C216.1 60.9 220.5 56.4 220.5 49.1C220.5 41.8 216.1 37.3 210.4 37.3C204.7 37.3 200.3 41.8 200.3 49.1ZM190.9 49.1C191 38.4 198.5 30 210.4 30C222.3 30 229.8 38.4 229.9 49.1C229.8 59.8 222.3 68.2 210.4 68.2C198.5 68.2 191 59.8 190.9 49.1ZM242.1 67.4H251V53H262.6V46H251V37.8H265L266.6 30.8H242.1V67.4ZM308.1 30.8H299.1L285.4 67.4H294.5L297 59.8H310.2L312.7 67.4H321.9L308.1 30.8ZM303.6 39.6L307.9 53.1H299.1L303.6 39.6ZM374.7 30.8H364.3L354.8 50.6L345.3 30.8H334.9V67.4H342.9V42.9L354.7 67.4L366.5 42.9V67.4H374.8L374.7 30.8ZM392 67.4H417V60.4H400.9V52.2H413.6V45.4H400.9V37.8H415.6L417.2 30.8H392V67.4ZM450.9 67.4H460.6L451.5 51.9C456.5 50.5 458.9 47 458.9 41.9C458.9 35.3 454.9 30.9 445.9 30.9H431.8V67.5H440.5V53.1H442.9L450.9 67.4ZM444.2 37.6C447.9 37.6 449.8 39.2 449.8 42.3C449.8 45.4 447.9 47 444.2 47H440.4V37.6H444.2ZM473.9 67.4H482.8V30.9H473.9V67.4ZM526.6 57.6C523.2 60 520.2 60.8 517.1 60.8C510.3 60.8 505.5 56.1 505.5 49.1C505.5 42.1 510.2 37.4 516.8 37.4C519.8 37.4 522.8 38.2 526.1 40.6V32.3C523.1 30.6 519.6 29.9 515.7 29.9C503.6 29.9 496 38.3 495.9 49C496 59.8 503.4 68.1 515.7 68.1C519.8 68.1 523.3 67.4 526.5 65.7V57.6H526.6ZM559.2 30.8H550.2L536.5 67.4H545.6L548.1 59.8H561.3L563.8 67.4H573L559.2 30.8ZM554.7 39.6L559 53.1H550.2L554.7 39.6Z" fill="#E7E7E7"/>
</g>
<defs>
<clipPath id="clip0_94_2">
<rect width="720" height="73" fill="white" transform="translate(0.5 0.5)"/>
</clipPath>
</defs>
</svg>
