<?xml version="1.0" encoding="UTF-8"?>
<svg id="SVGRoot" width="500" height="273.11" version="1.1" viewBox="0 0 500 273.10925" xmlns="http://www.w3.org/2000/svg" xmlns:cc="http://creativecommons.org/ns#" xmlns:dc="http://purl.org/dc/elements/1.1/" xmlns:rdf="http://www.w3.org/1999/02/22-rdf-syntax-ns#"><metadata><rdf:RDF><cc:Work rdf:about=""><dc:format>image/svg+xml</dc:format><dc:type rdf:resource="http://purl.org/dc/dcmitype/StillImage"/><dc:title/></cc:Work></rdf:RDF></metadata><g transform="translate(-268.75 -99.418)"><path class="st0" d="m268.75 372.1h13.781c6.8906 0 10.336-3.876 10.336-8.6133 0-4.3066-2.1533-6.8906-6.8906-7.7519 3.876-0.86135 6.0293-3.4453 6.0293-6.8906 0-4.7373-3.4453-8.1826-10.336-8.1826h-12.92zm12.059-13.781c2.584 0 4.3066 1.292 4.3066 3.876 0 2.584-1.7226 3.876-4.3066 3.876h-4.3067v-7.7519zm-0.86134-12.489c2.584 0 4.3066 1.292 4.3066 3.876 0 2.584-1.7227 3.876-4.3066 3.876h-3.4453v-7.3213zm41.344-6.0293h-7.752l-12.059 32.3h7.7519l2.1533-6.46h11.628l2.1533 6.46h8.1826zm-3.876 7.7519 3.876 11.628h-7.752zm55.986-7.7519h-7.3213v21.533l-13.781-21.533h-8.1826v31.869h7.3213v-21.102l13.781 21.102h8.1826zm33.161 32.3-10.336-16.365v16.365h-7.7519v-31.869h7.7519v15.504l9.9052-15.504h8.6132l-10.336 15.504 11.628 16.796h-9.4746zm36.606-16.365c0 6.46 3.876 10.336 8.6132 10.336 4.7373 0 8.6133-3.876 8.6133-10.336 0-6.46-3.876-10.336-8.6133-10.336-4.7373 0.43066-8.6132 4.3066-8.6132 10.336zm-8.1826 0c0-9.4746 6.4599-16.796 17.227-16.796 10.767 0 16.796 7.3213 17.227 16.796 0 9.4746-6.4599 16.796-17.227 16.796-10.767 0-17.227-7.3213-17.227-16.796zm44.789 16.365h7.752v-12.489h10.336v-6.0293h-10.336v-7.3213h12.059l1.292-6.0293h-21.533zm57.709-32.3h-7.7519l-12.059 31.869h7.752l2.1533-6.4599h11.628l2.1533 6.4599h8.1826zm-3.876 7.7519 3.876 11.628h-7.7519zm62.015-7.7519h-9.0439l-8.1826 17.227-8.1826-17.227h-9.044v31.869h6.8906v-21.533l10.336 21.533 10.336-21.533v21.533h7.3213zm15.073 32.3h21.964v-6.0293h-14.212v-7.3213h11.197v-6.0293h-11.197v-6.46h12.92l1.292-6.0293h-21.964zm51.249 0h8.6132l-7.752-13.351c4.3066-1.292 6.46-4.3066 6.46-8.6133 0-5.5986-3.4453-9.4746-11.197-9.4746h-12.489v31.869h7.752v-12.489h2.1533zm-5.5986-26.27c3.4454 0 4.7373 1.292 4.7373 4.3066 0 2.584-1.7226 4.3067-4.7373 4.3067h-3.4453v-8.1826zm25.84 26.27h7.752v-31.869h-7.752zm46.081-8.6133c-3.0146 2.1533-5.5986 2.584-8.1826 2.584-6.0292 0-10.336-4.3066-10.336-10.336s4.3066-10.336 9.9052-10.336c2.584 0 5.168 0.86131 8.1826 2.584v-7.3213c-2.584-1.292-5.5986-2.1533-9.044-2.1533-10.767 0-17.226 7.3213-17.226 16.796s6.46 16.796 17.226 16.796c3.4454 0 6.46-0.43066 9.4746-2.1533zm28.424-23.686h-7.752l-12.059 31.869h7.752l2.1534-6.4599h11.628l2.1534 6.4599h8.1826zm-3.876 7.7519 3.876 11.628h-7.752z" fill="#1e2c69" stroke-width=".5"/><g stroke-width="1.9224"><path class="st0" d="m518.67 291.66c56.618-48.718 134.3-94.802 177.75-111.92-6.5835-3.9501-17.117-10.534-28.967-17.117-55.301 18.434-121.14 59.251-179.07 105.34 10.534 7.9002 19.75 15.8 30.284 23.701z" fill="#e31d34"/><path class="st0" d="m492.34 161.3c-7.9002-3.9501-17.117-7.9002-23.701-10.534-21.067 10.534-48.718 26.334-82.952 51.351 7.9002 3.9501 15.8 9.2169 23.701 13.167 26.334-19.75 53.985-38.184 82.952-53.985z" fill="#1e2c69"/><path class="st0" d="m542.37 138.92c-10.534-5.2668-44.768-18.434-69.785-23.701-6.5835 2.6334-17.117 6.5835-23.701 9.2169 9.2169 2.6334 42.134 11.85 69.785 25.017 6.5835-3.9501 17.117-7.9002 23.701-10.534z" fill="#e31d34"/><path class="st0" d="m423.87 134.97c-31.601 14.484-64.518 34.234-81.635 46.084 6.5835 2.6334 13.167 5.2668 21.067 9.2169 39.501-26.334 71.102-43.451 82.952-48.718-9.2169-2.6334-17.117-5.2668-22.384-6.5835z" fill="#1e2c69"/><path class="st0" d="m566.07 129.7c6.5835-2.6334 15.8-3.9501 22.384-6.5835-21.067-9.2169-47.401-18.434-71.102-23.701-3.9501 1.3167-14.484 3.9501-22.384 6.5835 9.2169 2.6334 35.551 7.9002 71.102 23.701z" fill="#e31d34"/><path class="st0" d="m434.4 229.77c7.9002 5.2668 17.117 11.85 26.334 18.434 57.935-44.768 115.87-80.319 179.07-100.07-9.2169-3.9501-17.117-7.9002-26.334-13.167-36.868 9.2169-102.7 35.551-179.07 94.802z" fill="#e31d34"/></g></g></svg>
