<svg width="50" height="50" viewBox="0 0 50 50" fill="none" xmlns="http://www.w3.org/2000/svg">
<g clip-path="url(#clip0_5508_172)">
<path d="M39.5833 8.33333H31.25V6.25C31.25 4.5924 30.5915 3.00268 29.4194 1.83058C28.2473 0.65848 26.6576 0 25 0C23.3424 0 21.7527 0.65848 20.5806 1.83058C19.4085 3.00268 18.75 4.5924 18.75 6.25V8.33333H10.4167C7.65501 8.33664 5.00741 9.43517 3.05462 11.388C1.10184 13.3407 0.00330804 15.9883 0 18.75L0 39.5833C0.00330804 42.345 1.10184 44.9926 3.05462 46.9454C5.00741 48.8982 7.65501 49.9967 10.4167 50H39.5833C42.345 49.9967 44.9926 48.8982 46.9454 46.9454C48.8982 44.9926 49.9967 42.345 50 39.5833V18.75C49.9967 15.9883 48.8982 13.3407 46.9454 11.388C44.9926 9.43517 42.345 8.33664 39.5833 8.33333ZM20.8333 37.5C20.8333 38.0525 20.6138 38.5824 20.2231 38.9731C19.8324 39.3638 19.3025 39.5833 18.75 39.5833H8.33333C7.7808 39.5833 7.25089 39.3638 6.86019 38.9731C6.46949 38.5824 6.25 38.0525 6.25 37.5V20.8333C6.25 20.2808 6.46949 19.7509 6.86019 19.3602C7.25089 18.9695 7.7808 18.75 8.33333 18.75H18.75C19.3025 18.75 19.8324 18.9695 20.2231 19.3602C20.6138 19.7509 20.8333 20.2808 20.8333 20.8333V37.5ZM25 12.5C24.4475 12.5 23.9176 12.2805 23.5269 11.8898C23.1362 11.4991 22.9167 10.9692 22.9167 10.4167V6.25C22.9167 5.69747 23.1362 5.16756 23.5269 4.77686C23.9176 4.38616 24.4475 4.16667 25 4.16667C25.5525 4.16667 26.0824 4.38616 26.4731 4.77686C26.8638 5.16756 27.0833 5.69747 27.0833 6.25V10.4167C27.0833 10.9692 26.8638 11.4991 26.4731 11.8898C26.0824 12.2805 25.5525 12.5 25 12.5ZM37.5 39.5833H29.1667C28.6141 39.5833 28.0842 39.3638 27.6935 38.9731C27.3028 38.5824 27.0833 38.0525 27.0833 37.5C27.0833 36.9475 27.3028 36.4176 27.6935 36.0269C28.0842 35.6362 28.6141 35.4167 29.1667 35.4167H37.5C38.0525 35.4167 38.5824 35.6362 38.9731 36.0269C39.3638 36.4176 39.5833 36.9475 39.5833 37.5C39.5833 38.0525 39.3638 38.5824 38.9731 38.9731C38.5824 39.3638 38.0525 39.5833 37.5 39.5833ZM41.6667 31.25H29.1667C28.6141 31.25 28.0842 31.0305 27.6935 30.6398C27.3028 30.2491 27.0833 29.7192 27.0833 29.1667C27.0833 28.6141 27.3028 28.0842 27.6935 27.6935C28.0842 27.3028 28.6141 27.0833 29.1667 27.0833H41.6667C42.2192 27.0833 42.7491 27.3028 43.1398 27.6935C43.5305 28.0842 43.75 28.6141 43.75 29.1667C43.75 29.7192 43.5305 30.2491 43.1398 30.6398C42.7491 31.0305 42.2192 31.25 41.6667 31.25ZM41.6667 22.9167H29.1667C28.6141 22.9167 28.0842 22.6972 27.6935 22.3065C27.3028 21.9158 27.0833 21.3859 27.0833 20.8333C27.0833 20.2808 27.3028 19.7509 27.6935 19.3602C28.0842 18.9695 28.6141 18.75 29.1667 18.75H41.6667C42.2192 18.75 42.7491 18.9695 43.1398 19.3602C43.5305 19.7509 43.75 20.2808 43.75 20.8333C43.75 21.3859 43.5305 21.9158 43.1398 22.3065C42.7491 22.6972 42.2192 22.9167 41.6667 22.9167ZM10.4167 22.9167H16.6667V35.4167H10.4167V22.9167Z" fill="#F7F7F7"/>
</g>
<defs>
<clipPath id="clip0_5508_172">
<rect width="50" height="50" fill="white"/>
</clipPath>
</defs>
</svg>
