<?xml version="1.0" encoding="UTF-8"?>
<svg id="Capa_2" data-name="Capa 2" xmlns="http://www.w3.org/2000/svg" viewBox="0 0 109.2 114.97">
  <defs>
    <style>
      .cls-1 {
        fill: #e43d84;
      }

      .cls-2 {
        fill: #e875a8;
      }

      .cls-3 {
        fill: #d60e6c;
      }

      .cls-4 {
        fill: #f04791;
      }

      .cls-5 {
        fill: #b21259;
      }

      .cls-6 {
        fill: #f161a3;
      }

      .cls-7 {
        fill: #de0c6a;
      }
    </style>
  </defs>
  <g id="Capa_1-2" data-name="Capa 1">
    <g>
      <polygon class="cls-6" points="45.19 82.47 44.63 83.83 61 114.97 67.83 98.67 45.19 82.47"/>
      <polygon class="cls-4" points="33.51 52.69 24.47 46.22 27.89 52.69 33.51 52.69"/>
      <polygon class="cls-4" points="74.74 82.19 66.59 76.35 60.03 92.03 55.42 83.41 60.29 71.85 52.09 65.98 45.19 82.47 67.83 98.67 74.74 82.19"/>
      <polygon class="cls-2" points="24.47 46.22 33.51 52.69 50.09 52.69 53.12 45.29 48.04 41.66 33.29 41.66 24.27 24.65 6.21 11.73 24.47 46.22"/>
      <polygon class="cls-2" points="67.22 55.38 58.98 49.49 52.09 65.98 60.29 71.85 67.22 55.38"/>
      <polygon class="cls-2" points="81.65 65.71 73.48 59.86 66.59 76.35 74.74 82.19 81.65 65.71"/>
      <polygon class="cls-1" points="36.92 31.33 63.54 31.33 48.55 20.6 31.26 20.61 36.92 31.33"/>
      <polygon class="cls-1" points="53.12 45.29 54.6 41.66 48.04 41.66 53.12 45.29"/>
      <polygon class="cls-1" points="17.1 11.14 35.33 11.14 19.76 0 0 0 6.21 11.73 24.27 24.65 17.1 11.14"/>
      <polygon class="cls-1" points="74.14 38.91 65.88 33 58.98 49.49 67.22 55.38 74.14 38.91"/>
      <polygon class="cls-1" points="88.56 49.23 80.38 43.37 73.48 59.86 81.65 65.71 88.56 49.23"/>
      <polygon class="cls-5" points="74.14 38.91 81.07 22.44 78.47 20.58 48.55 20.6 63.54 31.33 66.58 31.33 65.88 33 74.14 38.91"/>
      <polygon class="cls-5" points="35.33 11.14 65.27 11.14 49.71 0 19.76 0 35.33 11.14"/>
      <polygon class="cls-5" points="95.47 32.75 87.28 26.88 80.38 43.37 88.56 49.23 95.47 32.75"/>
      <polygon class="cls-7" points="95.47 32.75 102.38 16.27 79.65 0 49.71 0 65.27 11.14 93.86 11.14 87.28 26.88 95.47 32.75"/>
      <polygon class="cls-7" points="81.07 22.44 81.86 20.58 78.47 20.58 81.07 22.44"/>
      <polygon class="cls-3" points="79.65 0 102.38 16.27 109.2 0 79.65 0"/>
    </g>
  </g>
</svg>