<svg xmlns="http://www.w3.org/2000/svg" version="1.1" xmlns:xlink="http://www.w3.org/1999/xlink"
    width="512" height="512" x="0" y="0" viewBox="0 0 60 60"
    style="enable-background:new 0 0 512 512" xml:space="preserve" class="hovered-paths"><g><path d="M10 4h4a1 1 0 0 0 1-1V2H9v1a1 1 0 0 0 1 1ZM18 55.933c.019 0 .214.055.285-.02l5.672-5.946-5.673-5.946c-.074-.078-.281-.014-.293 0L18 46.969a1 1 0 0 1-1 1h-2a13.149 13.149 0 0 1-9.929-4.735c1.081 5.477 4.77 8.732 9.929 8.732h2a1 1 0 0 1 1 1v2.969Z" fill="#000000" opacity="1" data-original="#000000" class="hovered-path"></path><path d="M4 36h16a2 2 0 0 0 2-2V4a2 2 0 0 0-2-2h-3v1a3 3 0 0 1-3 3h-4a3 3 0 0 1-3-3V2H4a2 2 0 0 0-2 2v30a2 2 0 0 0 2 2ZM18 5a1 1 0 0 1 2 0v1a1 1 0 0 1-2 0Zm-6 15a3.992 3.992 0 0 1-1-7.858V11a1 1 0 0 1 2 0v1.142A4 4 0 0 1 16 16a1 1 0 0 1-2 0 2 2 0 1 0-2 2 3.992 3.992 0 0 1 1 7.858V27a1 1 0 0 1-2 0v-1.142A4 4 0 0 1 8 22a1 1 0 0 1 2 0 2 2 0 1 0 2-2ZM9 32h6a1 1 0 0 1 0 2H9a1 1 0 0 1 0-2ZM4 5a1 1 0 0 1 2 0v1a1 1 0 0 1-2 0ZM56 24h-3v1a3 3 0 0 1-3 3h-4a3 3 0 0 1-3-3v-1h-3a2 2 0 0 0-2 2v30a2 2 0 0 0 2 2h16a2 2 0 0 0 2-2V26a2 2 0 0 0-2-2Zm-14 4a1 1 0 0 1-2 0v-1a1 1 0 0 1 2 0Zm9 28h-6a1 1 0 0 1 0-2h6a1 1 0 0 1 0 2Zm-3-16a3.992 3.992 0 0 1 1 7.858V49a1 1 0 0 1-2 0v-1.142A4 4 0 0 1 44 44a1 1 0 0 1 2 0 2 2 0 1 0 2-2 3.992 3.992 0 0 1-1-7.858V33a1 1 0 0 1 2 0v1.142A4 4 0 0 1 52 38a1 1 0 0 1-2 0 2 2 0 1 0-2 2Zm8-12a1 1 0 0 1-2 0v-1a1 1 0 0 1 2 0Z" fill="#000000" opacity="1" data-original="#000000" class="hovered-path"></path><path d="M46 26h4a1 1 0 0 0 1-1v-1h-6v1a1 1 0 0 0 1 1ZM45 8h-2a1 1 0 0 1-1-1V4.029c0 .014-.043-.029-.137-.029a.2.2 0 0 0-.147.051L36.044 10l5.673 5.946c.076.082.281.016.293 0L42 13a1 1 0 0 1 1-1h2a13.154 13.154 0 0 1 9.929 4.733C53.848 11.253 50.159 8 45 8Z" fill="#000000" opacity="1" data-original="#000000" class="hovered-path"></path></g></svg>