<svg width="50" height="50" viewBox="0 0 50 50" fill="none" xmlns="http://www.w3.org/2000/svg">
<path d="M45.6166 15.3562C44.4604 16.6021 41.2646 19.8917 36.6187 23.475C31.7479 27.2333 26.2312 30.2625 25.9979 30.3896C25.692 30.5583 25.3483 30.6468 24.9989 30.6468C24.6496 30.6468 24.3059 30.5583 24 30.3896C23.7687 30.2625 18.2521 27.2333 13.3791 23.475C8.73331 19.8917 5.53748 16.6021 4.37915 15.3542L3.15206 14.0417C2.44954 17.6531 2.09168 21.323 2.08331 25.0021C2.08331 34.2896 4.49165 41.3604 4.59581 41.6562C4.71102 41.9884 4.90841 42.286 5.16959 42.5213C5.43077 42.7566 5.74725 42.922 6.08956 43.0021C6.4604 43.0896 15.2979 45.1333 25.0021 45.1333C35.0416 45.1333 43.5729 43.0854 43.9312 42.9979C44.2694 42.9156 44.5816 42.7499 44.8393 42.5159C45.0969 42.2819 45.2918 41.9871 45.4062 41.6583C45.5083 41.3646 47.9187 34.3458 47.9187 25C47.9187 20.6937 47.4146 16.9042 46.8583 14.0312L45.6208 15.3562H45.6166Z" fill="#F7F7F7"/>
<path d="M7.42912 12.5146C10.0561 15.286 12.8968 17.8466 15.925 20.1729C19.3541 22.8188 23.2166 25.1354 25 26.1646C26.7833 25.1334 30.6541 22.8146 34.0729 20.175C37.1008 17.8508 39.9402 15.2907 42.5645 12.5188L45.675 9.19169C45.5885 8.90461 45.4969 8.61915 45.4 8.33544C45.285 8.00866 45.0902 7.71576 44.8334 7.48329C44.5765 7.25083 44.2657 7.08615 43.9291 7.00419C43.5708 6.91669 35.0604 4.86877 24.9979 4.86877C15.1145 4.86877 6.44162 6.91461 6.07703 7.00211C5.73647 7.08339 5.42194 7.24937 5.16263 7.48464C4.90332 7.71991 4.70763 8.01686 4.5937 8.34794C4.57495 8.40419 4.47495 8.69586 4.32495 9.19586L7.42912 12.5188V12.5146Z" fill="#F7F7F7"/>
</svg>
