<svg width="2097" height="560" viewBox="0 0 2097 560" fill="none" xmlns="http://www.w3.org/2000/svg">
<path d="M781.488 114.528H665.831C657.917 114.528 651.186 120.298 649.952 128.138L603.175 425.736C602.245 431.607 606.777 436.902 612.713 436.902H667.928C675.843 436.902 682.574 431.132 683.808 423.275L696.424 343.008C697.642 335.151 704.389 329.382 712.287 329.382H748.9C825.085 329.382 869.054 292.388 880.537 219.079C885.712 187.006 880.757 161.806 865.791 144.158C849.353 124.778 820.198 114.528 781.488 114.528ZM794.831 223.219C788.506 264.863 756.797 264.863 726.137 264.863H708.685L720.928 187.091C721.656 182.39 725.714 178.928 730.45 178.928H738.449C759.334 178.928 779.036 178.928 789.216 190.875C795.287 198.002 797.148 208.591 794.831 223.219Z" fill="#86155B"/>
<path d="M1127.21 221.879H1071.82C1067.1 221.879 1063.03 225.341 1062.3 230.041L1059.85 245.585L1055.97 239.951C1043.98 222.49 1017.25 216.652 990.562 216.652C929.36 216.652 877.087 263.166 866.907 328.415C861.613 360.962 869.139 392.085 887.538 413.789C904.416 433.745 928.565 442.061 957.297 442.061C1006.61 442.061 1033.96 410.242 1033.96 410.242L1031.49 425.685C1030.56 431.59 1035.09 436.885 1040.99 436.885H1090.88C1098.81 436.885 1105.51 431.115 1106.76 423.258L1136.69 233.045C1137.64 227.19 1133.12 221.879 1127.21 221.879ZM1050.01 330.044C1044.66 361.794 1019.55 383.108 987.518 383.108C971.435 383.108 958.583 377.932 950.33 368.124C942.145 358.383 939.033 344.519 941.638 329.076C946.626 297.598 972.162 275.588 1003.7 275.588C1019.43 275.588 1032.21 280.831 1040.64 290.725C1049.07 300.72 1052.42 314.669 1050.01 330.044Z" fill="#86155B"/>
<path d="M1422.17 221.879H1366.52C1361.21 221.879 1356.22 224.526 1353.21 228.955L1276.45 342.415L1243.91 233.384C1241.86 226.562 1235.59 221.879 1228.49 221.879H1173.8C1167.15 221.879 1162.53 228.395 1164.65 234.674L1225.95 415.198L1168.32 496.839C1163.78 503.27 1168.35 512.112 1176.18 512.112H1231.77C1237.04 512.112 1241.98 509.532 1244.98 505.188L1430.09 237.067C1434.52 230.652 1429.97 221.879 1422.17 221.879Z" fill="#86155B"/>
<path d="M1606.44 114.528H1490.76C1482.87 114.528 1476.14 120.298 1474.9 128.138L1428.12 425.736C1427.19 431.607 1431.73 436.902 1437.63 436.902H1496.99C1502.5 436.902 1507.22 432.863 1508.08 427.365L1521.36 343.008C1522.57 335.151 1529.32 329.382 1537.22 329.382H1573.82C1650.02 329.382 1693.97 292.388 1705.47 219.079C1710.66 187.006 1705.67 161.806 1690.71 144.158C1674.29 124.778 1645.15 114.528 1606.44 114.528ZM1619.78 223.219C1613.47 264.863 1581.76 264.863 1551.09 264.863H1533.65L1545.91 187.091C1546.64 182.39 1550.66 178.928 1555.42 178.928H1563.42C1584.28 178.928 1604 178.928 1614.18 190.875C1620.25 198.002 1622.1 208.591 1619.78 223.219Z" fill="#F044BF"/>
<path d="M1952.14 221.879H1896.79C1892.04 221.879 1887.99 225.341 1887.28 230.041L1884.83 245.585L1880.94 239.951C1868.95 222.49 1842.23 216.652 1815.55 216.652C1754.34 216.652 1702.09 263.166 1691.91 328.415C1686.63 360.962 1694.12 392.085 1712.52 413.789C1729.43 433.745 1753.55 442.061 1782.28 442.061C1831.59 442.061 1858.94 410.242 1858.94 410.242L1856.47 425.685C1855.54 431.59 1860.07 436.885 1866.01 436.885H1915.88C1923.78 436.885 1930.51 431.115 1931.74 423.258L1961.69 233.045C1962.61 227.19 1958.07 221.879 1952.14 221.879ZM1874.94 330.044C1869.63 361.794 1844.48 383.108 1812.45 383.108C1796.4 383.108 1783.52 377.932 1775.26 368.124C1767.08 358.383 1764 344.519 1766.57 329.076C1771.59 297.598 1797.1 275.588 1828.63 275.588C1844.36 275.588 1857.15 280.831 1865.57 290.725C1874.04 300.72 1877.39 314.669 1874.94 330.044Z" fill="#F044BF"/>
<path d="M2017.43 122.691L1969.96 425.736C1969.03 431.607 1973.56 436.902 1979.47 436.902H2027.19C2035.12 436.902 2041.85 431.132 2043.07 423.275L2089.88 125.695C2090.81 119.823 2086.28 114.511 2080.38 114.511H2026.94C2022.22 114.528 2018.16 117.99 2017.43 122.691Z" fill="#F044BF"/>
<path d="M122.877 494.735L131.722 438.361L112.02 437.903H17.9429L83.3219 21.9248C83.5249 20.6691 84.1844 19.4982 85.1483 18.6666C86.1123 17.8351 87.3468 17.377 88.6321 17.377H247.26C299.922 17.377 336.264 28.3733 355.239 50.0776C364.134 60.2594 369.799 70.8994 372.539 82.6085C375.414 94.8945 375.464 109.573 372.657 127.476L372.454 128.783V140.255L381.35 145.311C388.841 149.299 394.794 153.864 399.36 159.091C406.97 167.796 411.891 178.861 413.971 191.978C416.119 205.469 415.409 221.522 411.891 239.697C407.833 260.604 401.271 278.812 392.41 293.712C384.258 307.44 373.875 318.827 361.546 327.651C349.776 336.034 335.791 342.398 319.979 346.47C304.657 350.475 287.188 352.495 268.027 352.495H255.682C246.854 352.495 238.28 355.685 231.549 361.404C224.802 367.241 220.337 375.217 218.967 383.939L218.037 389.013L202.411 488.371L201.701 492.019C201.515 493.173 201.194 493.75 200.72 494.141C200.297 494.497 199.689 494.735 199.097 494.735H122.877Z" fill="#86155B"/>
<path d="M389.771 130.107C389.298 133.144 388.757 136.25 388.148 139.44C367.229 247.215 295.66 284.446 204.254 284.446H157.715C146.536 284.446 137.117 292.592 135.375 303.656L111.547 455.297L104.799 498.281C103.666 505.544 109.247 512.095 116.553 512.095H199.097C208.871 512.095 217.175 504.967 218.714 495.295L219.525 491.086L235.067 392.119L236.065 386.689C237.587 376.982 245.907 369.855 255.682 369.855H268.027C348 369.855 410.606 337.273 428.904 242.989C436.548 203.602 432.591 170.715 412.365 147.585C406.243 140.611 398.65 134.824 389.771 130.107Z" fill="#F044BF"/>
<path d="M367.888 121.35C364.692 120.417 361.394 119.569 358.012 118.805C354.613 118.058 351.129 117.396 347.544 116.819C334.996 114.783 321.247 113.816 306.517 113.816H182.185C179.125 113.816 176.216 114.512 173.611 115.767C167.878 118.533 163.617 123.981 162.585 130.65L136.136 298.752L135.375 303.656C137.117 292.592 146.536 284.446 157.715 284.446H204.255C295.66 284.446 367.229 247.198 388.148 139.44C388.774 136.25 389.298 133.144 389.772 130.107C384.478 127.29 378.745 124.88 372.573 122.827C371.051 122.318 369.478 121.825 367.888 121.35Z" fill="#520535"/>
<path d="M162.585 130.65C163.617 123.981 167.878 118.533 173.611 115.784C176.232 114.528 179.124 113.833 182.185 113.833H306.517C321.247 113.833 334.996 114.8 347.544 116.836C351.129 117.413 354.613 118.075 358.012 118.822C361.394 119.585 364.692 120.434 367.888 121.367C369.478 121.842 371.05 122.335 372.589 122.827C378.762 124.88 384.495 127.307 389.788 130.107C396.011 90.2788 389.737 63.1612 368.277 38.6061C344.618 11.5733 301.917 0 247.277 0H88.6488C77.4873 0 67.9663 8.14545 66.2413 19.2267L0.168924 439.481C-1.13325 447.796 5.25922 455.297 13.6134 455.297H111.547L136.136 298.751L162.585 130.65Z" fill="#86155B"/>
</svg>
