<svg width="169" height="113" viewBox="0 0 169 113" fill="none" xmlns="http://www.w3.org/2000/svg">
<path fill-rule="evenodd" clip-rule="evenodd" d="M47 1.06155C66.7363 4.97215 75.57 16.9722 73.5 37.0616C68.6639 55.7506 56.4973 65.2506 37 65.5616C52.8483 77.6536 68.515 89.9876 84 102.562C99.997 103.062 115.997 103.229 132 103.062C132 93.7286 132 84.3946 132 75.0616C135.333 75.0616 138.667 75.0616 142 75.0616C142 87.3946 142 99.7286 142 112.062C121.667 112.062 101.333 112.062 81 112.062C60.423 96.9916 40.2564 81.3256 20.5 65.0616C20.0017 61.7446 19.835 58.4116 20 55.0616C29.0679 55.4426 38.0679 54.9426 47 53.5616C60.8066 47.7816 65.9733 37.615 62.5 23.0616C59.2904 16.5395 54.1238 12.5395 47 11.0616C34.511 10.0662 21.8443 9.73285 9 10.0616C9 39.7283 9 69.3946 9 99.0616C6 99.0616 3 99.0616 0 99.0616C0 66.3946 0 33.7283 0 1.06155C15.6667 1.06155 31.3333 1.06155 47 1.06155Z" fill="#1E1E1E"/>
<path fill-rule="evenodd" clip-rule="evenodd" d="M142 65.0616C138.667 65.0616 135.333 65.0616 132 65.0616C132.167 49.3916 132 33.7247 131.5 18.0616C119.118 33.604 106.952 49.2706 95 65.0616C90.667 65.0616 86.333 65.0616 82 65.0616C98.428 43.4561 115.094 21.9561 132 0.561559C135.317 0.0632595 138.65 -0.103441 142 0.0615594C142 21.7283 142 43.3949 142 65.0616Z" fill="#1E1E1E"/>
<path fill-rule="evenodd" clip-rule="evenodd" d="M81.9999 65.0615C86.3329 65.0615 90.6669 65.0615 94.9999 65.0615C107.333 65.0615 119.667 65.0615 132 65.0615C135.333 65.0615 138.667 65.0615 142 65.0615C149.341 64.8955 156.674 65.0615 164 65.5615C165.708 67.0715 167.374 68.5715 169 70.0615C167.374 71.5515 165.708 73.0515 164 74.5615C157.008 75.0615 150.008 75.2275 143 75.0615C142.667 75.0615 142.333 75.0615 142 75.0615C138.667 75.0615 135.333 75.0615 132 75.0615C115 75.0615 97.9999 75.0615 80.9999 75.0615C80.6869 71.5195 81.0209 68.1865 81.9999 65.0615Z" fill="#F05221"/>
</svg>
